<svg width="26" height="26" viewBox="0 0 26 26" fill="none" xmlns="http://www.w3.org/2000/svg">
<path fill-rule="evenodd" clip-rule="evenodd" d="M11.6984 0.650025C11.8379 0.649805 11.9737 0.694421 12.0858 0.777287C12.1979 0.860153 12.2804 0.976877 12.3211 1.11023L14.8275 9.34312L22.322 12.0822C22.4456 12.1275 22.5525 12.2092 22.6287 12.3166C22.7048 12.424 22.7465 12.5519 22.7484 12.6835C22.7502 12.8151 22.712 12.9442 22.6389 13.0536C22.5658 13.1631 22.4612 13.2477 22.3389 13.2964L14.8938 16.2539L12.3211 24.8859C12.281 25.0199 12.1988 25.1374 12.0866 25.2209C11.9744 25.3044 11.8383 25.3495 11.6984 25.3495C11.5586 25.3495 11.4225 25.3044 11.3103 25.2209C11.1981 25.1374 11.1158 25.0199 11.0757 24.8859L8.50304 16.2539L1.05794 13.2964C0.935661 13.2477 0.83105 13.1631 0.757941 13.0536C0.684832 12.9442 0.646669 12.8151 0.6485 12.6835C0.650332 12.5519 0.692072 12.424 0.768199 12.3166C0.844326 12.2092 0.951253 12.1275 1.07484 12.0822L8.56933 9.34312L11.077 1.11023C11.1177 0.97709 11.2 0.86052 11.3119 0.777674C11.4237 0.694829 11.5592 0.650083 11.6984 0.650025ZM11.6984 3.53082L9.71854 10.0308C9.68918 10.1271 9.63785 10.2153 9.56859 10.2884C9.49933 10.3615 9.41404 10.4175 9.31944 10.452L3.12234 12.7192L9.27654 15.1632C9.36772 15.1996 9.44947 15.2562 9.51567 15.3287C9.58186 15.4012 9.63078 15.4877 9.65874 15.5818L11.6997 22.425L13.7381 15.5818C13.7661 15.4877 13.815 15.4012 13.8812 15.3287C13.9474 15.2562 14.0292 15.1996 14.1203 15.1632L20.2745 12.7192L14.0774 10.4546C13.9828 10.4201 13.8975 10.3641 13.8283 10.291C13.759 10.2179 13.7077 10.1297 13.6783 10.0334L11.6984 3.53082Z" fill="#6C87AE"/>
<path d="M21.7724 24.856C21.6424 24.856 21.5254 24.752 21.5124 24.622C21.2784 22.256 21.0964 21.502 18.9254 21.294C18.7954 21.281 18.6914 21.164 18.6914 21.034C18.6914 20.904 18.7954 20.787 18.9254 20.774C21.1484 20.566 21.2784 19.994 21.5124 17.628C21.5124 17.498 21.6424 17.394 21.7724 17.394C21.9024 17.394 22.0194 17.498 22.0324 17.628C22.2664 19.994 22.4094 20.566 24.6194 20.774C24.7494 20.787 24.8534 20.904 24.8534 21.034C24.8534 21.164 24.7494 21.281 24.6194 21.294C22.4354 21.502 22.2664 22.256 22.0324 24.635C22.0324 24.765 21.9154 24.869 21.7724 24.869V24.856Z" fill="#6C87AE"/>
</svg>
