<svg width="18" height="15" viewBox="0 0 18 15" fill="none" xmlns="http://www.w3.org/2000/svg">
<path d="M6.24011 10.0931L6.41688 10.2699L6.59366 10.0931L15.0676 1.61915C15.3332 1.35356 15.6709 1.2168 16.1014 1.2168C16.5318 1.2168 16.8696 1.35356 17.1352 1.61915C17.4007 1.88474 17.5375 2.22248 17.5375 2.65293C17.5375 3.08339 17.4007 3.42113 17.1352 3.68672L7.45067 13.3712C7.14852 13.6734 6.80741 13.8168 6.41688 13.8168C6.02636 13.8168 5.68525 13.6734 5.3831 13.3712L0.886729 8.87484C0.621142 8.60925 0.484375 8.27151 0.484375 7.84105C0.484375 7.4106 0.621142 7.07286 0.886729 6.80727C1.15231 6.54168 1.49006 6.40492 1.92051 6.40492C2.35097 6.40492 2.68871 6.54168 2.9543 6.80727L6.24011 10.0931Z" fill="white" stroke="#3D8CEF" stroke-width="0.5"/>
</svg>
