<svg width="8" height="19" viewBox="0 0 8 19" fill="none" xmlns="http://www.w3.org/2000/svg">
<path d="M4.5 1.00195C4.5 0.725811 4.27614 0.501953 4 0.501953C3.72386 0.501953 3.5 0.72581 3.5 1.00195L4.5 1.00195ZM3.64644 18.3555C3.8417 18.5508 4.15828 18.5508 4.35354 18.3555L7.53552 15.1735C7.73079 14.9783 7.73079 14.6617 7.53553 14.4664C7.34026 14.2712 7.02368 14.2712 6.82842 14.4664L3.99999 17.2948L1.17156 14.4664C0.976302 14.2712 0.65972 14.2712 0.464457 14.4664C0.269195 14.6617 0.269195 14.9783 0.464457 15.1735L3.64644 18.3555ZM3.5 1.00195L3.49999 18.002H4.49999L4.5 1.00195L3.5 1.00195Z" fill="#A9A9A9"/>
</svg>
