<svg width="12" height="19" viewBox="0 0 12 19" fill="none" xmlns="http://www.w3.org/2000/svg">
<path d="M5.25 18.002C5.25 18.4162 5.58579 18.752 6 18.752C6.41421 18.752 6.75 18.4162 6.75 18.002L5.25 18.002ZM6.53034 0.471622C6.23745 0.17873 5.76257 0.17873 5.46968 0.471622L0.696707 5.24459C0.403814 5.53748 0.403814 6.01236 0.696707 6.30525C0.9896 6.59814 1.46447 6.59814 1.75737 6.30525L6.00001 2.06261L10.2426 6.30526C10.5355 6.59815 11.0104 6.59815 11.3033 6.30526C11.5962 6.01236 11.5962 5.53749 11.3033 5.2446L6.53034 0.471622ZM6.75 18.002L6.75001 1.00195H5.25001L5.25 18.002L6.75 18.002Z" fill="#3D8CEF"/>
</svg>
