<svg width="27" height="22" viewBox="0 0 27 22" fill="none" xmlns="http://www.w3.org/2000/svg">
<path d="M6.60039 17.417V9.16699C6.60039 7.7083 7.29575 6.30936 8.53349 5.27791C9.77123 4.24645 11.45 3.66699 13.2004 3.66699C14.9508 3.66699 16.6296 4.24645 17.8673 5.27791C19.105 6.30936 19.8004 7.7083 19.8004 9.16699V17.417M6.60039 17.417H19.8004M6.60039 17.417H4.40039M19.8004 17.417H22.0004M12.1004 20.167H14.3004" stroke="white" stroke-width="1.5" stroke-linecap="round" stroke-linejoin="round"/>
<path d="M13.1996 3.66683C13.8071 3.66683 14.2996 3.25642 14.2996 2.75016C14.2996 2.2439 13.8071 1.8335 13.1996 1.8335C12.5921 1.8335 12.0996 2.2439 12.0996 2.75016C12.0996 3.25642 12.5921 3.66683 13.1996 3.66683Z" stroke="white" stroke-width="1.5"/>
</svg>
