<svg width="23" height="23" viewBox="0 0 23 23" fill="none" xmlns="http://www.w3.org/2000/svg">
<path d="M20.3126 20.6342L20.3117 20.6342C20.2126 20.6341 20.114 20.62 20.0188 20.5924C20.0187 20.5923 20.0185 20.5923 20.0184 20.5923L17.5316 19.8819C16.6774 20.3147 15.7431 20.5671 14.7867 20.6233C13.8104 20.6806 12.833 20.5321 11.9179 20.1873C11.0027 19.8426 10.1702 19.3093 9.47438 18.6222C8.80051 17.9567 8.2694 17.1612 7.91307 16.2844C7.06375 16.1972 6.23755 15.9549 5.47555 15.5694L2.98866 16.2798C2.98853 16.2798 2.98841 16.2798 2.98829 16.2799C2.89312 16.3075 2.79453 16.3216 2.69543 16.3217L2.69508 16.3217C2.53279 16.3215 2.37276 16.2836 2.22758 16.2111C2.08241 16.1385 1.95606 16.0332 1.85849 15.9036C1.76092 15.7739 1.69479 15.6233 1.66531 15.4637L1.8126 15.4365L1.66531 15.4637C1.63583 15.3042 1.64378 15.14 1.68853 14.9841L20.3126 20.6342ZM20.3126 20.6342C20.4745 20.6333 20.6341 20.595 20.7787 20.5222C20.9234 20.4493 21.0492 20.344 21.1463 20.2144C21.2434 20.0848 21.3091 19.9344 21.3384 19.7752C21.3676 19.6159 21.3596 19.452 21.3149 19.2964L21.2837 19.1878H21.2803L20.6008 16.8091C21.1087 15.8059 21.3668 14.6946 21.3528 13.5697C21.3385 12.4249 21.0427 11.3011 20.4915 10.2976C19.9404 9.29406 19.1507 8.44156 18.1923 7.81528C17.2597 7.20588 16.1951 6.82888 15.0878 6.71521C14.7435 5.86619 14.2353 5.09298 13.5919 4.43993C12.9268 3.76488 12.1312 3.23237 11.2536 2.87488C10.376 2.51738 9.43472 2.34238 8.48725 2.36056C7.53978 2.37874 6.60594 2.58971 5.74267 2.9806C4.87941 3.3715 4.1048 3.93413 3.4661 4.63419C2.82739 5.33424 2.33797 6.15706 2.02767 7.05246C1.71737 7.94786 1.5927 8.89708 1.66125 9.84224C1.72837 10.7675 1.97928 11.6699 2.39909 12.4967L1.68858 14.9839L20.3126 20.6342ZM3.43426 12.5823L3.43429 12.5821C3.47071 12.4542 3.45563 12.3171 3.39227 12.2001L3.39208 12.1998C2.70612 10.9414 2.49665 9.4779 2.80207 8.0776C3.10748 6.67731 3.90731 5.43398 5.05497 4.5755C6.20263 3.71702 7.62123 3.3009 9.05077 3.40341C10.4803 3.50591 11.825 4.12017 12.8385 5.1336C13.8519 6.14704 14.4662 7.49176 14.5687 8.92131C14.6712 10.3509 14.2551 11.7695 13.3966 12.9171C12.5381 14.0648 11.2948 14.8646 9.89448 15.17C8.49466 15.4753 7.03172 15.2661 5.77361 14.5807C5.6995 14.5385 5.61597 14.5156 5.53069 14.5141L5.37803 14.5114V14.5389L2.70462 15.3023C2.70462 15.3023 2.70461 15.3023 2.70461 15.3023C2.69953 15.3038 2.69415 15.3038 2.68904 15.3025C2.68393 15.3012 2.67926 15.2985 2.67553 15.2948C2.67179 15.291 2.66912 15.2864 2.66779 15.2812C2.66646 15.2761 2.66652 15.2708 2.66794 15.2657C2.66795 15.2657 2.66795 15.2657 2.66796 15.2657L3.43426 12.5823ZM20.3239 19.6059L20.3237 19.6061C20.3199 19.61 20.3151 19.6127 20.3099 19.614C20.3046 19.6154 20.2991 19.6153 20.294 19.6137L20.2919 19.6131L17.6083 18.8467L17.6082 18.8467C17.4802 18.8103 17.3431 18.8254 17.2261 18.8887L17.2257 18.8889C16.5056 19.2816 15.7122 19.5215 14.8951 19.5934C14.078 19.6653 13.2549 19.5678 12.4772 19.307C11.6995 19.0461 10.9841 18.6275 10.3757 18.0774C9.82257 17.5773 9.36873 16.9782 9.03712 16.3118C10.0093 16.2542 10.9596 15.9937 11.8263 15.546C12.761 15.0634 13.5743 14.3756 14.2057 13.5343C14.8371 12.693 15.27 11.7198 15.4723 10.6875C15.6598 9.73008 15.6444 8.7448 15.428 7.7952C16.3007 7.95181 17.1284 8.30138 17.8503 8.81949C18.6326 9.38103 19.2673 10.1238 19.6998 10.9843C20.1324 11.8447 20.3499 12.7971 20.3339 13.76C20.3179 14.7229 20.0687 15.6676 19.6078 16.5132L19.6076 16.5135C19.5443 16.6305 19.5292 16.7676 19.5656 16.8955L19.5656 16.8957L20.3314 19.5773C20.3315 19.5775 20.3315 19.5777 20.3316 19.5778C20.3328 19.5827 20.3328 19.5878 20.3315 19.5926C20.3302 19.5976 20.3275 19.6022 20.3239 19.6059Z" fill="white" stroke="white" stroke-width="0.3"/>
</svg>
