<svg width="21" height="24" viewBox="0 0 21 24" fill="none" xmlns="http://www.w3.org/2000/svg">
<path d="M11.6088 3.233H3.3575C2.73225 3.233 2.13261 3.46826 1.6905 3.88703C1.24838 4.3058 1 4.87377 1 5.466V18.864C1 19.4562 1.24838 20.0242 1.6905 20.443C2.13261 20.8617 2.73225 21.097 3.3575 21.097H11.6088M16.3238 3.233H17.5025C18.1277 3.233 18.7274 3.46826 19.1695 3.88703C19.6116 4.3058 19.86 4.87377 19.86 5.466V6.5825M19.86 17.7475V18.864C19.86 19.4562 19.6116 20.0242 19.1695 20.443C18.7274 20.8617 18.1277 21.097 17.5025 21.097H16.3238M19.86 11.0485V13.2815M10.43 1V23.33" stroke="white" stroke-width="1.25" stroke-linecap="round" stroke-linejoin="round"/>
</svg>
