<svg width="44" height="44" viewBox="0 0 44 44" fill="none" xmlns="http://www.w3.org/2000/svg">
<path d="M32.9373 37.7703C34.2569 37.7703 35.5225 37.2461 36.4556 36.313M32.9373 37.7703C31.6177 37.7703 30.3521 37.2461 29.419 36.313M32.9373 37.7703V41.503M36.4556 36.313C37.3888 35.3799 37.913 34.1143 37.913 32.7947M36.4556 36.313L39.0955 38.9528M37.913 32.7947C37.913 31.475 37.3888 30.2095 36.4556 29.2763M37.913 32.7947H41.6456M36.4556 29.2763C35.5225 28.3432 34.2569 27.819 32.9373 27.819M36.4556 29.2763L39.0955 26.6365M32.9373 27.819C31.6177 27.819 30.3521 28.3432 29.419 29.2763M32.9373 27.819V24.0863M29.419 29.2763C28.4859 30.2095 27.9616 31.475 27.9616 32.7947M29.419 29.2763L26.781 26.6365M27.9616 32.7947C27.9616 34.1143 28.4859 35.3799 29.419 36.313M27.9616 32.7947H24.229M29.419 36.313L26.781 38.9528M32.1086 24.0863H33.7678M38.5088 26.0498L39.6821 27.2232M41.6456 31.966V33.6233M39.6821 38.3662L38.5088 39.5395M33.7678 41.503H32.1086M27.3676 39.5395L26.1943 38.3662M24.229 33.6233V31.966M26.1943 27.2232L27.3676 26.0498M29.2706 19.9613C28.2127 18.1265 26.5792 16.6918 24.6233 15.8794C22.6673 15.067 20.498 14.9224 18.4515 15.4678C16.405 16.0133 14.5954 17.2184 13.3033 18.8965C12.0111 20.5746 11.3084 22.632 11.304 24.75V28.875H15.429L16.804 42.625H21.9465M5.4373 7.128L2.79364 10.2135C2.5096 10.5456 2.35352 10.9682 2.35352 11.4052C2.35352 11.8421 2.5096 12.2648 2.79364 12.5968L4.41614 14.4833C4.70017 14.8154 4.85626 15.238 4.85626 15.675C4.85626 16.112 4.70017 16.5346 4.41614 16.8667L2.79364 18.7568C2.5096 19.0889 2.35352 19.5115 2.35352 19.9485C2.35352 20.3855 2.5096 20.8081 2.79364 21.1402L4.41614 23.0322C4.70017 23.3642 4.85626 23.7869 4.85626 24.2238C4.85626 24.6608 4.70017 25.0834 4.41614 25.4155L2.79364 27.3167C2.5096 27.6487 2.35352 28.0714 2.35352 28.5083C2.35352 28.9453 2.5096 29.3679 2.79364 29.7L5.4373 32.7837M35.7936 16.8777C35.5096 16.5456 35.3535 16.123 35.3535 15.686C35.3535 15.249 35.5096 14.8264 35.7936 14.4943L37.4161 12.6023C37.7002 12.2703 37.8563 11.8476 37.8563 11.4107C37.8563 10.9737 37.7002 10.5511 37.4161 10.219L34.7706 7.128M20.9198 12.375C22.3785 12.375 23.7774 11.7955 24.8089 10.7641C25.8403 9.73264 26.4198 8.33369 26.4198 6.875C26.4198 5.41631 25.8403 4.01736 24.8089 2.98591C23.7774 1.95446 22.3785 1.375 20.9198 1.375C19.4611 1.375 18.0622 1.95446 17.0307 2.98591C15.9993 4.01736 15.4198 5.41631 15.4198 6.875C15.4198 8.33369 15.9993 9.73264 17.0307 10.7641C18.0622 11.7955 19.4611 12.375 20.9198 12.375Z" stroke="white" stroke-width="2" stroke-linecap="round" stroke-linejoin="round"/>
</svg>
