<svg width="33" height="32" viewBox="0 0 33 32" fill="none" xmlns="http://www.w3.org/2000/svg">
<path fill-rule="evenodd" clip-rule="evenodd" d="M26.7976 21.6994V6.73343C26.7976 5.93959 26.477 5.17826 25.9063 4.61692C25.3356 4.05559 24.5616 3.74023 23.7545 3.74023H11.5821C10.7751 3.74023 10.0011 4.05559 9.43036 4.61692C8.85967 5.17826 8.53906 5.93959 8.53906 6.73343V21.6994C8.53906 22.4933 8.85967 23.2546 9.43036 23.8159C10.0011 24.3773 10.7751 24.6926 11.5821 24.6926H23.7545C24.5616 24.6926 25.3356 24.3773 25.9063 23.8159C26.477 23.2546 26.7976 22.4933 26.7976 21.6994Z" stroke="#3A8EF6" stroke-linecap="round" stroke-linejoin="round"/>
<path d="M8.23829 7.38574L5.18912 8.47826C4.43097 8.74988 3.81352 9.30655 3.47255 10.0259C3.13159 10.7452 3.09501 11.5682 3.37087 12.314L8.57455 26.3776C8.71127 26.747 8.92065 27.0863 9.19072 27.3761C9.46078 27.6659 9.78625 27.9006 10.1485 28.0667C10.5108 28.2328 10.9028 28.327 11.3021 28.3441C11.7014 28.3611 12.1002 28.3006 12.4758 28.166L20.9477 24.8765M13.0996 11.2245H20.7073M13.0996 14.2177H22.2289M13.0996 17.2109H17.6642" stroke="#3A8EF6" stroke-linecap="round" stroke-linejoin="round"/>
</svg>
