<svg width="13" height="13" viewBox="0 0 13 13" fill="none" xmlns="http://www.w3.org/2000/svg">
<mask id="path-1-inside-1_425_9420" fill="white">
<path d="M11.5718 4.44864L9.30234 2.17923C9.24573 2.12242 9.17846 2.07734 9.10439 2.04659C9.03032 2.01583 8.95091 2 8.8707 2C8.7905 2 8.71109 2.01583 8.63702 2.04659C8.56295 2.07734 8.49568 2.12242 8.43906 2.17923L2.17824 8.44158C2.06412 8.55583 2.00001 8.71071 2 8.8722V11.1416C2 11.3032 2.0642 11.4582 2.17848 11.5725C2.29276 11.6868 2.44776 11.751 2.60938 11.751H4.87879C4.95878 11.7512 5.03802 11.7355 5.11193 11.7049C5.18584 11.6743 5.25296 11.6294 5.30941 11.5727L9.81219 7.06997L10.1032 8.23794L8.15367 10.1879C8.134 10.2066 8.11826 10.229 8.10739 10.2538C8.09651 10.2787 8.09072 10.3054 8.09034 10.3325C8.08997 10.3597 8.09503 10.3866 8.10523 10.4117C8.11542 10.4368 8.13054 10.4596 8.14969 10.4788C8.16885 10.498 8.19165 10.5132 8.21675 10.5234C8.24186 10.5337 8.26876 10.5388 8.29587 10.5384C8.32298 10.5381 8.34975 10.5324 8.37461 10.5215C8.39946 10.5107 8.42189 10.495 8.44059 10.4754L10.4718 8.44411C10.4967 8.41934 10.5148 8.38855 10.5242 8.35473C10.5336 8.32091 10.5341 8.28522 10.5257 8.25115L10.1468 6.73786L11.5718 5.31294C11.6287 5.25631 11.6739 5.18898 11.7048 5.11481C11.7356 5.04065 11.7515 4.96112 11.7515 4.88079C11.7515 4.80047 11.7356 4.72094 11.7048 4.64677C11.6739 4.57261 11.6287 4.50528 11.5718 4.44864ZM2.40625 11.1416V9.19466L4.55684 11.3447H2.60938C2.5555 11.3447 2.50384 11.3233 2.46574 11.2852C2.42765 11.2472 2.40625 11.1955 2.40625 11.1416ZM5.04688 11.2604L2.49055 8.70411L7.07813 4.11654L9.63496 6.67286L5.04688 11.2604ZM11.2843 5.02298L9.92188 6.38544L7.36555 3.82911L8.72801 2.46665C8.74687 2.44777 8.76928 2.43278 8.79393 2.42256C8.81859 2.41234 8.84503 2.40708 8.87172 2.40708C8.89841 2.40708 8.92485 2.41234 8.9495 2.42256C8.97416 2.43278 8.99656 2.44777 9.01543 2.46665L11.2843 4.73607C11.3223 4.77415 11.3437 4.82574 11.3437 4.87952C11.3437 4.93331 11.3223 4.9849 11.2843 5.02298Z"/>
</mask>
<path d="M11.5718 4.44864L9.30234 2.17923C9.24573 2.12242 9.17846 2.07734 9.10439 2.04659C9.03032 2.01583 8.95091 2 8.8707 2C8.7905 2 8.71109 2.01583 8.63702 2.04659C8.56295 2.07734 8.49568 2.12242 8.43906 2.17923L2.17824 8.44158C2.06412 8.55583 2.00001 8.71071 2 8.8722V11.1416C2 11.3032 2.0642 11.4582 2.17848 11.5725C2.29276 11.6868 2.44776 11.751 2.60938 11.751H4.87879C4.95878 11.7512 5.03802 11.7355 5.11193 11.7049C5.18584 11.6743 5.25296 11.6294 5.30941 11.5727L9.81219 7.06997L10.1032 8.23794L8.15367 10.1879C8.134 10.2066 8.11826 10.229 8.10739 10.2538C8.09651 10.2787 8.09072 10.3054 8.09034 10.3325C8.08997 10.3597 8.09503 10.3866 8.10523 10.4117C8.11542 10.4368 8.13054 10.4596 8.14969 10.4788C8.16885 10.498 8.19165 10.5132 8.21675 10.5234C8.24186 10.5337 8.26876 10.5388 8.29587 10.5384C8.32298 10.5381 8.34975 10.5324 8.37461 10.5215C8.39946 10.5107 8.42189 10.495 8.44059 10.4754L10.4718 8.44411C10.4967 8.41934 10.5148 8.38855 10.5242 8.35473C10.5336 8.32091 10.5341 8.28522 10.5257 8.25115L10.1468 6.73786L11.5718 5.31294C11.6287 5.25631 11.6739 5.18898 11.7048 5.11481C11.7356 5.04065 11.7515 4.96112 11.7515 4.88079C11.7515 4.80047 11.7356 4.72094 11.7048 4.64677C11.6739 4.57261 11.6287 4.50528 11.5718 4.44864ZM2.40625 11.1416V9.19466L4.55684 11.3447H2.60938C2.5555 11.3447 2.50384 11.3233 2.46574 11.2852C2.42765 11.2472 2.40625 11.1955 2.40625 11.1416ZM5.04688 11.2604L2.49055 8.70411L7.07813 4.11654L9.63496 6.67286L5.04688 11.2604ZM11.2843 5.02298L9.92188 6.38544L7.36555 3.82911L8.72801 2.46665C8.74687 2.44777 8.76928 2.43278 8.79393 2.42256C8.81859 2.41234 8.84503 2.40708 8.87172 2.40708C8.89841 2.40708 8.92485 2.41234 8.9495 2.42256C8.97416 2.43278 8.99656 2.44777 9.01543 2.46665L11.2843 4.73607C11.3223 4.77415 11.3437 4.82574 11.3437 4.87952C11.3437 4.93331 11.3223 4.9849 11.2843 5.02298Z" fill="white"/>
<path d="M11.5718 4.44864L10.3343 5.68609L10.3379 5.68969L11.5718 4.44864ZM9.30234 2.17923L8.06276 3.41452L8.06491 3.41667L9.30234 2.17923ZM8.8707 2V0.25V2ZM8.43906 2.17923L9.67665 3.41652L9.67865 3.41452L8.43906 2.17923ZM2.17824 8.44158L0.940655 7.20429L0.940117 7.20483L2.17824 8.44158ZM2 8.8722L0.25 8.87212V8.8722H2ZM4.87879 11.751L4.88296 10.001H4.87879V11.751ZM5.30941 11.5727L4.07198 10.3353L4.06966 10.3376L5.30941 11.5727ZM9.81219 7.06997L11.5103 6.64692L10.7624 3.6449L8.57475 5.83254L9.81219 7.06997ZM10.1032 8.23794L11.3408 9.47522L12.0405 8.77528L11.8013 7.81489L10.1032 8.23794ZM8.15367 10.1879L9.35792 11.4577L9.37481 11.4417L9.39127 11.4252L8.15367 10.1879ZM8.44059 10.4754L7.20315 9.23793L7.18786 9.25321L7.17296 9.26887L8.44059 10.4754ZM10.4718 8.44411L9.23727 7.2038L9.2344 7.20668L10.4718 8.44411ZM10.5257 8.25115L12.224 7.82895L12.2233 7.82617L10.5257 8.25115ZM10.1468 6.73786L8.9094 5.50043L8.20852 6.20131L8.44922 7.16284L10.1468 6.73786ZM11.5718 5.31294L10.3379 4.07189L10.3343 4.0755L11.5718 5.31294ZM11.7515 4.88079H13.5015H11.7515ZM2.40625 9.19466L3.64354 7.95708L0.65625 4.97049V9.19466H2.40625ZM4.55684 11.3447V13.0947H8.78242L5.79413 10.1072L4.55684 11.3447ZM5.04688 11.2604L3.80944 12.4979L5.04681 13.7352L6.28424 12.4979L5.04688 11.2604ZM2.49055 8.70411L1.25311 7.46668L0.0156732 8.70411L1.25311 9.94155L2.49055 8.70411ZM7.07813 4.11654L8.31544 2.87898L7.078 1.64178L5.84069 2.8791L7.07813 4.11654ZM9.63496 6.67286L10.8723 7.91037L12.11 6.67281L10.8723 5.4353L9.63496 6.67286ZM11.2843 5.02298L12.5218 6.26042L12.5233 6.25892L11.2843 5.02298ZM9.92188 6.38544L8.68444 7.62288L9.92188 8.86032L11.1593 7.62288L9.92188 6.38544ZM7.36555 3.82911L6.12811 2.59168L4.89067 3.82911L6.12811 5.06655L7.36555 3.82911ZM8.72801 2.46665L9.96545 3.70409L9.96613 3.7034L8.72801 2.46665ZM9.01543 2.46665L7.7773 3.7034L7.77785 3.70395L9.01543 2.46665ZM11.2843 4.73607L12.5233 3.50013L12.5219 3.49877L11.2843 4.73607ZM12.8092 3.21121L10.5398 0.941794L8.06491 3.41667L10.3343 5.68608L12.8092 3.21121ZM10.5419 0.943944C10.3227 0.723987 10.0623 0.549464 9.77549 0.430381L8.43329 3.6628C8.29465 3.60523 8.16873 3.52085 8.06276 3.41452L10.5419 0.943944ZM9.77549 0.430381C9.4887 0.311299 9.18123 0.25 8.8707 0.25V3.75C8.72058 3.75 8.57194 3.72037 8.43329 3.6628L9.77549 0.430381ZM8.8707 0.25C8.56018 0.25 8.2527 0.311299 7.96592 0.430381L9.30812 3.6628C9.16947 3.72037 9.02083 3.75 8.8707 3.75V0.25ZM7.96592 0.430381C7.67913 0.549464 7.41867 0.723987 7.19948 0.943944L9.67865 3.41452C9.57268 3.52085 9.44676 3.60523 9.30812 3.6628L7.96592 0.430381ZM7.20148 0.941944L0.940655 7.20429L3.41583 9.67886L9.67665 3.41652L7.20148 0.941944ZM0.940117 7.20483C0.498242 7.64719 0.250029 8.24687 0.25 8.87212L3.75 8.87228C3.74999 9.17455 3.62999 9.46446 3.41637 9.67832L0.940117 7.20483ZM0.25 8.8722V11.1416H3.75V8.8722H0.25ZM0.25 11.1416C0.25 11.7674 0.498578 12.3675 0.941045 12.8099L3.41592 10.3351C3.62983 10.549 3.75 10.8391 3.75 11.1416H0.25ZM0.941045 12.8099C1.38351 13.2524 1.98362 13.501 2.60938 13.501V10.001C2.9119 10.001 3.20202 10.1212 3.41592 10.3351L0.941045 12.8099ZM2.60938 13.501H4.87879V10.001H2.60938V13.501ZM4.87462 13.501C5.18568 13.5017 5.4938 13.4409 5.78121 13.3219L4.44264 10.088C4.58223 10.0302 4.73188 10.0006 4.88296 10.001L4.87462 13.501ZM5.78121 13.3219C6.06863 13.2029 6.32963 13.0282 6.54917 12.8079L4.06966 10.3376C4.17628 10.2306 4.30305 10.1458 4.44264 10.088L5.78121 13.3219ZM6.54685 12.8102L11.0496 8.30741L8.57475 5.83254L4.07198 10.3353L6.54685 12.8102ZM8.11409 7.49302L8.40507 8.66099L11.8013 7.81489L11.5103 6.64692L8.11409 7.49302ZM8.86557 7.00067L6.91607 8.95067L9.39127 11.4252L11.3408 9.47522L8.86557 7.00067ZM6.94942 8.91818C6.76025 9.0976 6.60894 9.31305 6.50437 9.55182L9.71041 10.9559C9.62759 11.145 9.50775 11.3156 9.35792 11.4577L6.94942 8.91818ZM6.50437 9.55182C6.39979 9.79061 6.34407 10.0479 6.34051 10.3086L9.84018 10.3565C9.83736 10.5629 9.79323 10.7667 9.71041 10.9559L6.50437 9.55182ZM6.34051 10.3086C6.33694 10.5693 6.3856 10.828 6.4836 11.0696L9.72685 9.75378C9.80447 9.94509 9.84301 10.15 9.84018 10.3565L6.34051 10.3086ZM6.4836 11.0696C6.58161 11.3112 6.72699 11.5307 6.91116 11.7152L9.38822 9.24249C9.53409 9.38861 9.64923 9.56246 9.72685 9.75378L6.4836 11.0696ZM6.91116 11.7152C7.09532 11.8996 7.31456 12.0454 7.55598 12.1439L8.87753 8.90296C9.06874 8.98093 9.24238 9.09638 9.38822 9.24249L6.91116 11.7152ZM7.55598 12.1439C7.7974 12.2423 8.05606 12.2914 8.31671 12.2883L8.27503 8.78856C8.48146 8.7861 8.68632 8.82499 8.87753 8.90296L7.55598 12.1439ZM8.31671 12.2883C8.57735 12.2852 8.83477 12.23 9.07379 12.1258L7.67542 8.91728C7.86473 8.83477 8.06861 8.79102 8.27503 8.78856L8.31671 12.2883ZM9.07379 12.1258C9.31277 12.0216 9.52848 11.8707 9.70821 11.6819L7.17296 9.26887C7.31531 9.11931 7.48615 8.99977 7.67542 8.91728L9.07379 12.1258ZM9.67802 11.7128L11.7093 9.68155L9.2344 7.20668L7.20315 9.23793L9.67802 11.7128ZM11.7064 9.68442C11.9457 9.44624 12.1191 9.15011 12.2098 8.82493L8.83855 7.88452C8.91039 7.62698 9.04776 7.39245 9.23728 7.20381L11.7064 9.68442ZM12.2098 8.82493C12.3006 8.49975 12.3054 8.15659 12.224 7.82895L8.82736 8.67334C8.76285 8.41384 8.76671 8.14207 8.83855 7.88452L12.2098 8.82493ZM12.2233 7.82617L11.8445 6.31289L8.44922 7.16284L8.82805 8.67612L12.2233 7.82617ZM11.3843 7.9753L12.8092 6.55038L10.3343 4.0755L8.9094 5.50043L11.3843 7.9753ZM12.8056 6.55398C13.0261 6.33472 13.2012 6.07401 13.3206 5.78687L10.089 4.44276C10.1467 4.30394 10.2313 4.1779 10.3379 4.0719L12.8056 6.55398ZM13.3206 5.78687C13.44 5.49971 13.5015 5.19179 13.5015 4.88079H10.0015C10.0015 4.73045 10.0312 4.58158 10.089 4.44276L13.3206 5.78687ZM13.5015 4.88079C13.5015 4.5698 13.44 4.26187 13.3206 3.97472L10.089 5.31883C10.0312 5.18 10.0015 5.03114 10.0015 4.88079H13.5015ZM13.3206 3.97472C13.2012 3.68757 13.0261 3.42687 12.8056 3.2076L10.3379 5.68969C10.2313 5.58368 10.1467 5.45765 10.089 5.31883L13.3206 3.97472ZM4.15625 11.1416V9.19466H0.65625V11.1416H4.15625ZM1.16896 10.4322L3.31955 12.5823L5.79413 10.1072L3.64354 7.95708L1.16896 10.4322ZM4.55684 9.59474H2.60938V13.0947H4.55684V9.59474ZM2.60938 9.59474C3.01963 9.59474 3.41308 9.75771 3.70318 10.0478L1.22831 12.5227C1.59459 12.889 2.09138 13.0947 2.60938 13.0947V9.59474ZM3.70318 10.0478C3.99328 10.3379 4.15625 10.7314 4.15625 11.1416H0.65625C0.65625 11.6596 0.862025 12.1564 1.22831 12.5227L3.70318 10.0478ZM6.28431 10.023L3.72798 7.46668L1.25311 9.94155L3.80944 12.4979L6.28431 10.023ZM3.72798 9.94155L8.31556 5.35397L5.84069 2.8791L1.25311 7.46668L3.72798 9.94155ZM5.84081 5.3541L8.39765 7.91042L10.8723 5.4353L8.31544 2.87898L5.84081 5.3541ZM8.39759 5.43536L3.80951 10.0229L6.28424 12.4979L10.8723 7.91037L8.39759 5.43536ZM10.0469 3.78554L8.68444 5.148L11.1593 7.62288L12.5218 6.26042L10.0469 3.78554ZM11.1593 5.148L8.60298 2.59168L6.12811 5.06655L8.68444 7.62288L11.1593 5.148ZM8.60298 5.06655L9.96545 3.70409L7.49057 1.22922L6.12811 2.59168L8.60298 5.06655ZM9.96613 3.7034C9.82247 3.84722 9.65187 3.96132 9.46408 4.03917L8.12379 0.805959C7.88668 0.90425 7.67127 1.04831 7.48988 1.2299L9.96613 3.7034ZM9.46408 4.03917C9.27629 4.11701 9.075 4.15708 8.87172 4.15708V0.657079C8.61505 0.657079 8.3609 0.707669 8.12379 0.805959L9.46408 4.03917ZM8.87172 4.15708C8.66843 4.15708 8.46714 4.11701 8.27936 4.03917L9.61965 0.805959C9.38255 0.707672 9.1284 0.657079 8.87172 0.657079V4.15708ZM8.27936 4.03917C8.09157 3.96132 7.92097 3.84722 7.77731 3.7034L10.2536 1.2299C10.0722 1.04831 9.85676 0.90425 9.61965 0.805959L8.27936 4.03917ZM7.77785 3.70395L10.0468 5.97337L12.5219 3.49877L10.253 1.22935L7.77785 3.70395ZM10.0454 5.972C9.75612 5.68202 9.59366 5.28913 9.59366 4.87952H13.0937C13.0937 4.36234 12.8885 3.86627 12.5233 3.50013L10.0454 5.972ZM9.59366 4.87952C9.59366 4.46992 9.75612 4.07703 10.0454 3.78704L12.5233 6.25892C12.8885 5.89277 13.0937 5.39671 13.0937 4.87952H9.59366Z" fill="white" mask="url(#path-1-inside-1_425_9420)"/>
</svg>
