<svg width="14" height="12" viewBox="0 0 14 12" fill="none" xmlns="http://www.w3.org/2000/svg">
<path d="M9.76339 0C8.51886 0 7.42922 0.555131 6.75 1.49348C6.07078 0.555131 4.98114 0 3.73661 0C2.74594 0.00115823 1.79617 0.409884 1.09566 1.13651C0.395152 1.86313 0.00111661 2.84831 0 3.87591C0 8.25195 6.2552 11.794 6.52158 11.9403C6.59179 11.9795 6.67028 12 6.75 12C6.82972 12 6.9082 11.9795 6.97842 11.9403C7.2448 11.794 13.5 8.25195 13.5 3.87591C13.4989 2.84831 13.1048 1.86313 12.4043 1.13651C11.7038 0.409884 10.7541 0.00115823 9.76339 0ZM6.75 10.9276C5.64951 10.2624 0.964286 7.23233 0.964286 3.87591C0.965243 3.11354 1.25763 2.38268 1.77734 1.8436C2.29704 1.30452 3.00164 1.00123 3.73661 1.00024C4.90882 1.00024 5.89299 1.64789 6.30402 2.68813C6.34034 2.77986 6.40214 2.85832 6.48155 2.91353C6.56096 2.96874 6.6544 2.99822 6.75 2.99822C6.8456 2.99822 6.93904 2.96874 7.01845 2.91353C7.09786 2.85832 7.15966 2.77986 7.19598 2.68813C7.60701 1.64601 8.59118 1.00024 9.76339 1.00024C10.4984 1.00123 11.203 1.30452 11.7227 1.8436C12.2424 2.38268 12.5348 3.11354 12.5357 3.87591C12.5357 7.22733 7.84929 10.2618 6.75 10.9276Z" fill="#333333"/>
</svg>
