<svg width="45" height="45" viewBox="0 0 45 45" fill="none" xmlns="http://www.w3.org/2000/svg">
<path d="M29.5708 24.1543C30.5008 23.2268 31.2384 22.1247 31.7411 20.9112C32.2437 19.6978 32.5017 18.3969 32.5 17.0835C32.5 11.561 28.0225 7.0835 22.5 7.0835C16.9775 7.0835 12.5 11.561 12.5 17.0835C12.5 19.8452 13.6192 22.3452 15.4292 24.1543" stroke="white" stroke-width="1.3" stroke-linecap="round"/>
<path d="M7.5 40.4168L8.33333 36.2502L17.5 29.5835L22.5 34.5835L27.5 29.5835L36.6667 36.2502L37.5 40.4168" stroke="white" stroke-width="1.3" stroke-linecap="round" stroke-linejoin="round"/>
<path d="M13.3281 21.2559C13.339 17.8309 13.8965 15.3284 15.0006 13.75C16.6573 11.3825 17.8231 11.5567 18.6715 11.925C19.5206 12.2942 20.0198 14.7034 21.4373 15.3984C22.854 16.0925 26.4823 16.1784 27.7248 17.0142C28.9665 17.8492 31.8081 19.4034 31.0998 22.0567" stroke="white" stroke-width="1.3"/>
</svg>
