<svg width="21" height="21" viewBox="0 0 21 21" fill="none" xmlns="http://www.w3.org/2000/svg">
<path d="M0.917969 5.66074C0.917969 4.81453 0.917969 4.39191 0.985052 4.03924C1.12806 3.28201 1.49597 2.58545 2.0408 2.04045C2.58563 1.49545 3.28207 1.12732 4.03926 0.984075C4.39289 0.916992 4.81647 0.916992 5.66172 0.916992C6.03164 0.916992 6.21755 0.916992 6.3958 0.933284C7.16347 1.00538 7.89156 1.3073 8.48497 1.79962C8.62297 1.91366 8.7533 2.04399 9.01589 2.30658L9.54297 2.83366C10.325 3.61566 10.716 4.00666 11.1836 4.26637C11.4407 4.40963 11.7134 4.52282 11.9963 4.6037C12.5119 4.75033 13.0648 4.75033 14.1698 4.75033H14.5282C17.0506 4.75033 18.3127 4.75033 19.1321 5.48824C19.2078 5.55533 19.2796 5.6272 19.3467 5.70291C20.0846 6.52228 20.0846 7.78441 20.0846 10.3067V12.417C20.0846 16.0309 20.0846 17.8383 18.9615 18.9605C17.8393 20.0837 16.0318 20.0837 12.418 20.0837H8.58464C4.97076 20.0837 3.16334 20.0837 2.04114 18.9605C0.917969 17.8383 0.917969 16.0309 0.917969 12.417V5.66074Z" stroke="black"/>
</svg>
