<svg width="50" height="50" viewBox="0 0 50 50" fill="none" xmlns="http://www.w3.org/2000/svg">
<path d="M19.793 25.832L22.7701 29.1654L30.2096 20.832" stroke="#333333" stroke-width="2" stroke-linecap="round" stroke-linejoin="round"/>
<path d="M6.25 21.7014C6.25 15.0389 6.25 11.7077 7.0375 10.5869C7.82292 9.4681 10.9542 8.39518 17.2188 6.25143L18.4125 5.8431C21.6771 4.72435 23.3083 4.16602 25 4.16602C26.6896 4.16602 28.3229 4.72435 31.5875 5.8431L32.7812 6.25143C39.0458 8.39518 42.1771 9.4681 42.9625 10.5869C43.75 11.7077 43.75 15.041 43.75 21.7014V24.9806C43.75 30.1994 42.0062 34.2244 39.5833 37.2994M6.65208 29.166C8.4375 38.1202 15.7833 42.7348 20.6229 44.8473C22.125 45.5035 22.8771 45.8327 25 45.8327C27.125 45.8327 27.875 45.5035 29.3771 44.8473C30.5833 44.3223 31.9417 43.639 33.3333 42.7765" stroke="#333333" stroke-width="2" stroke-linecap="round"/>
</svg>
