<svg width="42" height="42" viewBox="0 0 42 42" fill="none" xmlns="http://www.w3.org/2000/svg">
<g clip-path="url(#clip0_647_5848)">
<path d="M25.397 18.2491C24.0951 19.119 22.5645 19.5833 20.9987 19.5833C18.8991 19.5833 16.8854 18.7493 15.4008 17.2646C13.9161 15.7799 13.082 13.7663 13.082 11.6667C13.082 10.1009 13.5463 8.57029 14.4162 7.26841C15.2861 5.96652 16.5225 4.95182 17.9691 4.35262C19.4157 3.75343 21.0075 3.59665 22.5432 3.90212C24.0788 4.20759 25.4895 4.96158 26.5966 6.06874C27.7038 7.17591 28.4578 8.58652 28.7632 10.1222C29.0687 11.6579 28.9119 13.2497 28.3127 14.6962C27.7135 16.1428 26.6988 17.3792 25.397 18.2491ZM24.3784 6.60856C23.378 5.94012 22.2019 5.58334 20.9987 5.58334C19.3853 5.58334 17.838 6.22426 16.6971 7.3651C15.5563 8.50595 14.9154 10.0533 14.9154 11.6667C14.9154 12.8698 15.2721 14.046 15.9406 15.0464C16.609 16.0468 17.5591 16.8265 18.6707 17.2869C19.7823 17.7474 21.0054 17.8678 22.1855 17.6331C23.3655 17.3984 24.4495 16.819 25.3003 15.9682C26.151 15.1175 26.7304 14.0335 26.9651 12.8535C27.1999 11.6734 27.0794 10.4503 26.619 9.33868C26.1585 8.2271 25.3788 7.27701 24.3784 6.60856Z" fill="black" stroke="white" stroke-width="0.5"/>
<path d="M6.08203 30.03L6.08203 30.0296C6.08121 29.4999 6.2822 28.9898 6.64412 28.603C8.49163 26.6504 10.7179 25.0952 13.1869 24.0322C15.6561 22.9692 18.3162 22.4209 21.0045 22.4209C23.6929 22.4209 26.3529 22.9692 28.8221 24.0322C31.2909 25.095 33.5169 26.6501 35.3643 28.6023C35.7221 28.9906 35.919 29.5003 35.9154 30.0283V30.03V36.1667C35.9154 36.7192 35.6959 37.2491 35.3052 37.6398C34.9145 38.0305 34.3846 38.25 33.832 38.25H8.16537C7.61283 38.25 7.08293 38.0305 6.69223 37.6398C6.30153 37.2491 6.08203 36.7192 6.08203 36.1667L6.08203 30.03ZM33.832 36.4167H34.082V36.1667V30.0183V29.9186L34.0133 29.8462C32.3365 28.0806 30.318 26.6746 28.0806 25.7138C25.8432 24.753 23.4337 24.2576 20.9987 24.2576C18.5637 24.2576 16.1542 24.753 13.9168 25.7138C11.6794 26.6746 9.66088 28.0806 7.98409 29.8462L7.91537 29.9186V30.0183V36.1667V36.4167H8.16537H33.832Z" fill="black" stroke="white" stroke-width="0.5"/>
</g>
<defs>
<clipPath id="clip0_647_5848">
<rect width="42" height="42" fill="white"/>
</clipPath>
</defs>
</svg>
