<svg width="24" height="24" viewBox="0 0 24 24" fill="none" xmlns="http://www.w3.org/2000/svg">
<g clip-path="url(#clip0_434_2744)">
<path d="M8.40144 11.0909L8.01712 11.475H8.5605L17.25 11.475C17.3892 11.475 17.5228 11.5303 17.6212 11.6288C17.7197 11.7272 17.775 11.8608 17.775 12C17.775 12.1392 17.7197 12.2728 17.6212 12.3712C17.5228 12.4697 17.3892 12.525 17.25 12.525L8.5605 12.525H8.01712L8.40144 12.9091L11.6219 16.1281C11.6219 16.1281 11.6219 16.1281 11.6219 16.1281C11.6708 16.177 11.7095 16.2349 11.7359 16.2987L11.9438 16.2126L11.7359 16.2987C11.7623 16.3625 11.7759 16.4309 11.7759 16.5C11.7759 16.5691 11.7623 16.6375 11.7359 16.7013L11.9438 16.7874L11.7359 16.7013C11.7095 16.7651 11.6707 16.8231 11.6219 16.8719C11.5731 16.9207 11.5151 16.9595 11.4513 16.9859C11.3875 17.0123 11.3191 17.0259 11.25 17.0259C11.1809 17.0259 11.1125 17.0123 11.0487 16.9859C10.9849 16.9595 10.9269 16.9207 10.8781 16.8719L6.3781 12.3719L6.3779 12.3717C6.32901 12.3229 6.29022 12.265 6.26375 12.2012C6.23728 12.1374 6.22366 12.0691 6.22366 12C6.22366 11.9309 6.23728 11.8626 6.26375 11.7988C6.29022 11.735 6.32901 11.6771 6.3779 11.6283L6.3781 11.6281L10.8781 7.1281C10.9269 7.07926 10.9849 7.04052 11.0487 7.01409C11.1125 6.98766 11.1809 6.97405 11.25 6.97405C11.3191 6.97405 11.3875 6.98766 11.4513 7.01409C11.5151 7.04052 11.5731 7.07926 11.6219 7.1281C11.6707 7.17694 11.7095 7.23492 11.7359 7.29873C11.7623 7.36254 11.7759 7.43093 11.7759 7.5C11.7759 7.56907 11.7623 7.63746 11.7359 7.70127C11.7095 7.76506 11.6708 7.82303 11.6219 7.87186C11.6219 7.87188 11.6219 7.87189 11.6219 7.8719L8.40144 11.0909ZM22.725 12C22.725 9.15555 21.595 6.42761 19.5837 4.41628C17.5724 2.40495 14.8444 1.275 12 1.275C9.15555 1.275 6.42761 2.40495 4.41628 4.41628C2.40495 6.42761 1.275 9.15555 1.275 12C1.275 14.8444 2.40495 17.5724 4.41628 19.5837C6.42761 21.595 9.15555 22.725 12 22.725C14.8444 22.725 17.5724 21.595 19.5837 19.5837C21.595 17.5724 22.725 14.8444 22.725 12ZM0.225 12C0.225 8.87708 1.46558 5.88206 3.67382 3.67382C5.88206 1.46558 8.87708 0.225 12 0.225C15.1229 0.225 18.1179 1.46558 20.3262 3.67382C22.5344 5.88206 23.775 8.87708 23.775 12C23.775 15.1229 22.5344 18.1179 20.3262 20.3262C18.1179 22.5344 15.1229 23.775 12 23.775C8.87708 23.775 5.88206 22.5344 3.67382 20.3262C1.46558 18.1179 0.225 15.1229 0.225 12Z" fill="#A9A9A9" stroke="white" stroke-width="0.45"/>
</g>
<defs>
<clipPath id="clip0_434_2744">
<rect width="24" height="24" fill="white" transform="matrix(-1 0 0 -1 24 24)"/>
</clipPath>
</defs>
</svg>
