<svg width="60" height="60" viewBox="0 0 60 60" fill="none" xmlns="http://www.w3.org/2000/svg">
<mask id="path-1-inside-1_425_10316" fill="white">
<path d="M24 36C24 36.7957 23.6839 37.5587 23.1213 38.1213C22.5587 38.6839 21.7957 39 21 39C20.2044 39 19.4413 38.6839 18.8787 38.1213C18.3161 37.5587 18 36.7957 18 36C18 35.2044 18.3161 34.4413 18.8787 33.8787C19.4413 33.3161 20.2044 33 21 33C21.7957 33 22.5587 33.3161 23.1213 33.8787C23.6839 34.4413 24 35.2044 24 36ZM39 39C39.7957 39 40.5587 38.6839 41.1213 38.1213C41.6839 37.5587 42 36.7957 42 36C42 35.2044 41.6839 34.4413 41.1213 33.8787C40.5587 33.3161 39.7957 33 39 33C38.2044 33 37.4413 33.3161 36.8787 33.8787C36.3161 34.4413 36 35.2044 36 36C36 36.7957 36.3161 37.5587 36.8787 38.1213C37.4413 38.6839 38.2044 39 39 39ZM24 40.5C24 40.1022 24.158 39.7206 24.4393 39.4393C24.7206 39.158 25.1022 39 25.5 39H34.5C34.8978 39 35.2794 39.158 35.5607 39.4393C35.842 39.7206 36 40.1022 36 40.5C36 40.8978 35.842 41.2794 35.5607 41.5607C35.2794 41.842 34.8978 42 34.5 42H25.5C25.1022 42 24.7206 41.842 24.4393 41.5607C24.158 41.2794 24 40.8978 24 40.5ZM12 6C10.4087 6 8.88258 6.63214 7.75736 7.75736C6.63214 8.88258 6 10.4087 6 12V43.5C6 44.6935 6.47411 45.8381 7.31802 46.682C8.16193 47.5259 9.30653 48 10.5 48H12V49.5C12 50.6935 12.4741 51.8381 13.318 52.682C14.1619 53.5259 15.3065 54 16.5 54H19.5C20.6935 54 21.8381 53.5259 22.682 52.682C23.5259 51.8381 24 50.6935 24 49.5V48H36V49.5C36 50.6935 36.4741 51.8381 37.318 52.682C38.1619 53.5259 39.3065 54 40.5 54H43.5C44.6935 54 45.8381 53.5259 46.682 52.682C47.5259 51.8381 48 50.6935 48 49.5V48H49.5C50.6935 48 51.8381 47.5259 52.682 46.682C53.5259 45.8381 54 44.6935 54 43.5V12C54 10.4087 53.3679 8.88258 52.2426 7.75736C51.1174 6.63214 49.5913 6 48 6H12ZM39 49.5V48H45V49.5C45 49.8978 44.842 50.2794 44.5607 50.5607C44.2794 50.842 43.8978 51 43.5 51H40.5C40.1022 51 39.7206 50.842 39.4393 50.5607C39.158 50.2794 39 49.8978 39 49.5ZM21 48V49.5C21 49.8978 20.842 50.2794 20.5607 50.5607C20.2794 50.842 19.8978 51 19.5 51H16.5C16.1022 51 15.7206 50.842 15.4393 50.5607C15.158 50.2794 15 49.8978 15 49.5V48H21ZM9 12C9 11.2044 9.31607 10.4413 9.87868 9.87868C10.4413 9.31607 11.2044 9 12 9H48C48.7957 9 49.5587 9.31607 50.1213 9.87868C50.6839 10.4413 51 11.2044 51 12V43.5C51 43.8978 50.842 44.2794 50.5607 44.5607C50.2794 44.842 49.8978 45 49.5 45H48V29.238C48 28.626 47.925 28.014 47.775 27.42L45.525 18.408C45.2813 17.4336 44.7186 16.5688 43.9265 15.9512C43.1344 15.3336 42.1584 14.9988 41.154 15H18.843C17.8396 15.0001 16.8651 15.3356 16.0742 15.953C15.2833 16.5705 14.7215 17.4346 14.478 18.408L12.225 27.42C12.076 28.0145 12.0004 28.6251 12 29.238V45H10.5C10.1022 45 9.72065 44.842 9.43934 44.5607C9.15804 44.2794 9 43.8978 9 43.5V12ZM15 45V30H45V45H15ZM15.42 27L17.388 19.137C17.4688 18.8129 17.6556 18.525 17.9186 18.319C18.1817 18.113 18.5059 18.0008 18.84 18H41.154C41.4886 18.0001 41.8136 18.1121 42.0772 18.3181C42.3408 18.5241 42.528 18.8124 42.609 19.137L44.58 27H15.42Z"/>
</mask>
<path d="M24 36C24 36.7957 23.6839 37.5587 23.1213 38.1213C22.5587 38.6839 21.7957 39 21 39C20.2044 39 19.4413 38.6839 18.8787 38.1213C18.3161 37.5587 18 36.7957 18 36C18 35.2044 18.3161 34.4413 18.8787 33.8787C19.4413 33.3161 20.2044 33 21 33C21.7957 33 22.5587 33.3161 23.1213 33.8787C23.6839 34.4413 24 35.2044 24 36ZM39 39C39.7957 39 40.5587 38.6839 41.1213 38.1213C41.6839 37.5587 42 36.7957 42 36C42 35.2044 41.6839 34.4413 41.1213 33.8787C40.5587 33.3161 39.7957 33 39 33C38.2044 33 37.4413 33.3161 36.8787 33.8787C36.3161 34.4413 36 35.2044 36 36C36 36.7957 36.3161 37.5587 36.8787 38.1213C37.4413 38.6839 38.2044 39 39 39ZM24 40.5C24 40.1022 24.158 39.7206 24.4393 39.4393C24.7206 39.158 25.1022 39 25.5 39H34.5C34.8978 39 35.2794 39.158 35.5607 39.4393C35.842 39.7206 36 40.1022 36 40.5C36 40.8978 35.842 41.2794 35.5607 41.5607C35.2794 41.842 34.8978 42 34.5 42H25.5C25.1022 42 24.7206 41.842 24.4393 41.5607C24.158 41.2794 24 40.8978 24 40.5ZM12 6C10.4087 6 8.88258 6.63214 7.75736 7.75736C6.63214 8.88258 6 10.4087 6 12V43.5C6 44.6935 6.47411 45.8381 7.31802 46.682C8.16193 47.5259 9.30653 48 10.5 48H12V49.5C12 50.6935 12.4741 51.8381 13.318 52.682C14.1619 53.5259 15.3065 54 16.5 54H19.5C20.6935 54 21.8381 53.5259 22.682 52.682C23.5259 51.8381 24 50.6935 24 49.5V48H36V49.5C36 50.6935 36.4741 51.8381 37.318 52.682C38.1619 53.5259 39.3065 54 40.5 54H43.5C44.6935 54 45.8381 53.5259 46.682 52.682C47.5259 51.8381 48 50.6935 48 49.5V48H49.5C50.6935 48 51.8381 47.5259 52.682 46.682C53.5259 45.8381 54 44.6935 54 43.5V12C54 10.4087 53.3679 8.88258 52.2426 7.75736C51.1174 6.63214 49.5913 6 48 6H12ZM39 49.5V48H45V49.5C45 49.8978 44.842 50.2794 44.5607 50.5607C44.2794 50.842 43.8978 51 43.5 51H40.5C40.1022 51 39.7206 50.842 39.4393 50.5607C39.158 50.2794 39 49.8978 39 49.5ZM21 48V49.5C21 49.8978 20.842 50.2794 20.5607 50.5607C20.2794 50.842 19.8978 51 19.5 51H16.5C16.1022 51 15.7206 50.842 15.4393 50.5607C15.158 50.2794 15 49.8978 15 49.5V48H21ZM9 12C9 11.2044 9.31607 10.4413 9.87868 9.87868C10.4413 9.31607 11.2044 9 12 9H48C48.7957 9 49.5587 9.31607 50.1213 9.87868C50.6839 10.4413 51 11.2044 51 12V43.5C51 43.8978 50.842 44.2794 50.5607 44.5607C50.2794 44.842 49.8978 45 49.5 45H48V29.238C48 28.626 47.925 28.014 47.775 27.42L45.525 18.408C45.2813 17.4336 44.7186 16.5688 43.9265 15.9512C43.1344 15.3336 42.1584 14.9988 41.154 15H18.843C17.8396 15.0001 16.8651 15.3356 16.0742 15.953C15.2833 16.5705 14.7215 17.4346 14.478 18.408L12.225 27.42C12.076 28.0145 12.0004 28.6251 12 29.238V45H10.5C10.1022 45 9.72065 44.842 9.43934 44.5607C9.15804 44.2794 9 43.8978 9 43.5V12ZM15 45V30H45V45H15ZM15.42 27L17.388 19.137C17.4688 18.8129 17.6556 18.525 17.9186 18.319C18.1817 18.113 18.5059 18.0008 18.84 18H41.154C41.4886 18.0001 41.8136 18.1121 42.0772 18.3181C42.3408 18.5241 42.528 18.8124 42.609 19.137L44.58 27H15.42Z" fill="#333333" stroke="white" stroke-width="1.3" mask="url(#path-1-inside-1_425_10316)"/>
</svg>
