<svg width="139" height="35" viewBox="0 0 139 35" fill="none" xmlns="http://www.w3.org/2000/svg">
<g clip-path="url(#clip0_434_1318)">
<path d="M30.8419 12.719H35.6191V34.595H30.2806V21.1267L25.2227 28.1901H22.8204L17.7625 21.1267V34.595H12.457V12.719H17.2012L24.0064 22L30.8419 12.719Z" fill="white"/>
<path d="M43.0143 28.3774C43.5151 30.0661 45.1992 31.1267 47.5713 31.1267C49.4453 31.1267 51.0358 30.5317 52.409 29.5317L54.3765 32.719C52.5658 34.157 50.0369 35 47.197 35C41.6714 35 38.1133 31.595 38.1133 26.562C38.1133 21.5289 41.6108 18.0634 46.699 18.0634C52.4117 18.0634 55.9699 22.562 55.0342 28.3746H43.017L43.0143 28.3774ZM50.5075 25.1267C50.103 23.2507 48.7601 21.9697 46.7292 21.9697C44.6984 21.9697 43.328 23.1873 42.951 25.1267H50.5047H50.5075Z" fill="white"/>
<path d="M69.204 11.4711H74.2618V34.5951H69.6113L69.548 32.4381C68.2381 34.0634 66.3008 34.9698 63.9288 34.9698C59.5286 34.9698 56.375 31.5014 56.375 26.5317C56.375 21.562 59.5589 18.124 63.9288 18.124C66.0504 18.124 67.8941 18.9367 69.204 20.3747V11.4684V11.4711ZM69.2673 26.5345C69.2673 24.0965 67.6437 22.4408 65.3349 22.4408C63.0262 22.4408 61.4026 24.0965 61.4026 26.5345C61.4026 28.9725 63.0262 30.6282 65.3349 30.6282C67.6437 30.6282 69.2673 28.9725 69.2673 26.5345Z" fill="white"/>
<path d="M76.9453 13.6584C76.9453 11.8457 78.1616 10.6887 80.0659 10.6887C81.9701 10.6887 83.1259 11.8457 83.1259 13.6584C83.1259 15.4711 81.9096 16.6584 80.0659 16.6584C78.2222 16.6584 76.9453 15.4711 76.9453 13.6584ZM77.5067 34.5951V18.4711H82.5948V34.5951H77.5067Z" fill="white"/>
<path d="M84.9688 23.6584C84.9688 17.2838 89.3386 12.3141 96.1136 12.3141C99.6717 12.3141 102.795 13.7521 105.354 16.6584L102.077 20.0965C100.61 18.2535 98.6425 17.2204 96.4576 17.2204C92.8665 17.2204 90.4641 19.8761 90.4641 23.6584C90.4641 27.4408 92.8665 30.0965 96.5512 30.0965C99.0168 30.0965 101.015 29.0028 102.545 27.0662L105.822 30.5042C103.387 33.6281 99.8589 35.0055 96.2072 35.0055C89.4019 35.0055 84.9688 30.1929 84.9688 23.6612V23.6584Z" fill="#FCE40E"/>
<path d="M107.535 34.595V11.4711H112.623V34.595H107.535Z" fill="#FCE40E"/>
<path d="M115.277 13.6584C115.277 11.8457 116.494 10.6887 118.398 10.6887C120.302 10.6887 121.458 11.8457 121.458 13.6584C121.458 15.4711 120.242 16.6584 118.398 16.6584C116.554 16.6584 115.277 15.4711 115.277 13.6584ZM115.839 34.5951V18.4711H120.927V34.5951H115.839Z" fill="#FCE40E"/>
<path d="M123.206 26.5317C123.206 21.562 126.764 18.0634 131.822 18.0634C134.568 18.0634 137.034 19.0634 138.627 20.876L135.848 24.0331C134.849 23.0331 133.445 22.438 132.133 22.438C129.824 22.438 128.231 24.1267 128.231 26.5317C128.231 28.9366 129.761 30.6253 132.163 30.6253C133.66 30.6253 135.16 29.9366 136.065 28.719L138.999 31.719C137.251 33.9063 134.753 35 131.789 35C126.764 35 123.203 31.4986 123.203 26.5317H123.206Z" fill="#FCE40E"/>
<path d="M13.4454 4.73003V8.94215H8.90214V13.6722H4.51299V8.94215H0V4.73003H4.51299V0H8.90214V4.73003H13.4454Z" fill="#FCE40E"/>
</g>
<defs>
<clipPath id="clip0_434_1318">
<rect width="139" height="35" fill="white"/>
</clipPath>
</defs>
</svg>
