<svg width="43" height="43" viewBox="0 0 43 43" fill="none" xmlns="http://www.w3.org/2000/svg">
<path d="M14.3498 8.97788C14.2684 8.80474 14.1394 8.65835 13.9779 8.5558C13.8164 8.45326 13.629 8.3988 13.4377 8.3988C13.2464 8.3988 13.059 8.45326 12.8975 8.5558C12.736 8.65835 12.607 8.80474 12.5256 8.97788L1.77561 31.8216C1.66179 32.0635 1.64872 32.3407 1.73929 32.5923C1.82985 32.8438 2.01663 33.049 2.25852 33.1629C2.50042 33.2767 2.77762 33.2897 3.02915 33.1992C3.28068 33.1086 3.48593 32.9218 3.59975 32.68L6.48881 26.539H20.3865L23.2756 32.6783C23.332 32.798 23.4114 32.9055 23.5093 32.9946C23.6072 33.0837 23.7217 33.1527 23.8462 33.1975C23.9708 33.2423 24.1029 33.2622 24.2351 33.256C24.3674 33.2498 24.4971 33.2175 24.6168 33.1612C24.7366 33.1048 24.8441 33.0254 24.9332 32.9275C25.0223 32.8296 25.0912 32.7151 25.1361 32.5906C25.1809 32.466 25.2008 32.3339 25.1946 32.2017C25.1883 32.0694 25.1561 31.9397 25.0998 31.82L14.3498 8.97788ZM7.43784 24.5234L13.4377 11.7729L19.4375 24.5234H7.43784ZM33.5939 16.4609C31.543 16.4609 29.9473 17.0118 28.8522 18.0969C28.7582 18.1902 28.6835 18.3011 28.6324 18.4233C28.5813 18.5454 28.5548 18.6765 28.5543 18.8089C28.5538 18.9413 28.5795 19.0725 28.6297 19.195C28.6799 19.3176 28.7538 19.429 28.8471 19.523C29.0356 19.7127 29.2917 19.8199 29.5591 19.8208C29.6915 19.8213 29.8228 19.7957 29.9453 19.7454C30.0678 19.6952 30.1792 19.6213 30.2732 19.528C30.9753 18.8309 32.094 18.4765 33.5939 18.4765C36.0026 18.4765 37.9611 20.1344 37.9611 22.1718V23.3879C36.7329 22.3736 35.1868 21.8241 33.5939 21.8359C30.075 21.8359 27.2111 24.3974 27.2111 27.5468C27.2111 30.6962 30.075 33.2578 33.5939 33.2578C35.1868 33.2696 36.7329 32.7201 37.9611 31.7057V32.25C37.9611 32.5172 38.0673 32.7736 38.2563 32.9626C38.4453 33.1516 38.7016 33.2578 38.9689 33.2578C39.2362 33.2578 39.4926 33.1516 39.6816 32.9626C39.8706 32.7736 39.9767 32.5172 39.9767 32.25V22.1718C39.9767 19.0224 37.1213 16.4609 33.5939 16.4609ZM33.5939 31.2421C31.1853 31.2421 29.2267 29.5843 29.2267 27.5468C29.2267 25.5094 31.1853 23.8515 33.5939 23.8515C36.0026 23.8515 37.9611 25.5094 37.9611 27.5468C37.9611 29.5843 36.0026 31.2421 33.5939 31.2421Z" fill="#333333"/>
</svg>
