<svg width="38" height="38" viewBox="0 0 38 38" fill="none" xmlns="http://www.w3.org/2000/svg">
<path d="M31.6684 3.16663C31.6684 3.16663 28.5017 10.5893 28.5017 16.7374C28.5017 18.707 29.1762 20.3537 30.0851 21.994C31.1301 23.883 32.487 25.7624 33.4829 28.1105C34.273 29.9756 34.8351 32.1369 34.8351 34.8333M6.33507 3.16663C6.33507 3.16663 9.50173 10.5893 9.50173 16.7374C9.50173 18.707 8.82723 20.3537 7.9184 21.994C6.8734 23.883 5.51648 25.7624 4.52057 28.1105C3.61218 30.2345 3.15185 32.5232 3.1684 34.8333" stroke="white" stroke-width="2" stroke-linecap="round" stroke-linejoin="round"/>
<path d="M9.5 20.5833H17.4167M28.5 20.5833H23.75M33.25 27.7083C23.75 27.7083 19.7917 32.4583 19 34.8333C18.2083 32.4583 14.25 27.7083 4.75 27.7083" stroke="white" stroke-width="2" stroke-linecap="round"/>
</svg>
