<svg width="41" height="41" viewBox="0 0 41 41" fill="none" xmlns="http://www.w3.org/2000/svg">
<path d="M20.5 27.8672C22.4531 27.8646 24.3255 27.0876 25.7066 25.7066C27.0876 24.3255 27.8646 22.4531 27.8672 20.5V10.25C27.8672 8.2961 27.091 6.42223 25.7094 5.04061C24.3278 3.659 22.4539 2.88281 20.5 2.88281C18.5461 2.88281 16.6722 3.659 15.2906 5.04061C13.909 6.42223 13.1328 8.2961 13.1328 10.25V20.5C13.1354 22.4531 13.9124 24.3255 15.2934 25.7066C16.6745 27.0876 18.5469 27.8646 20.5 27.8672ZM15.0547 10.25C15.0547 8.80581 15.6284 7.42078 16.6496 6.39958C17.6708 5.37839 19.0558 4.80469 20.5 4.80469C21.9442 4.80469 23.3292 5.37839 24.3504 6.39958C25.3716 7.42078 25.9453 8.80581 25.9453 10.25V20.5C25.9453 21.9442 25.3716 23.3292 24.3504 24.3504C23.3292 25.3716 21.9442 25.9453 20.5 25.9453C19.0558 25.9453 17.6708 25.3716 16.6496 24.3504C15.6284 23.3292 15.0547 21.9442 15.0547 20.5V10.25ZM21.4609 32.9521V38.4375C21.4609 38.6924 21.3597 38.9368 21.1795 39.117C20.9993 39.2972 20.7549 39.3984 20.5 39.3984C20.2451 39.3984 20.0007 39.2972 19.8205 39.117C19.6403 38.9368 19.5391 38.6924 19.5391 38.4375V32.9521C16.4033 32.7069 13.4752 31.2891 11.3381 28.9813C9.20101 26.6736 8.01193 23.6453 8.00781 20.5C8.00781 20.2451 8.10905 20.0007 8.28926 19.8205C8.46948 19.6403 8.71389 19.5391 8.96875 19.5391C9.22361 19.5391 9.46802 19.6403 9.64824 19.8205C9.82845 20.0007 9.92969 20.2451 9.92969 20.5C9.92969 23.3034 11.0433 25.992 13.0257 27.9743C15.008 29.9567 17.6966 31.0703 20.5 31.0703C23.3034 31.0703 25.992 29.9567 27.9743 27.9743C29.9567 25.992 31.0703 23.3034 31.0703 20.5C31.0703 20.2451 31.1716 20.0007 31.3518 19.8205C31.532 19.6403 31.7764 19.5391 32.0312 19.5391C32.2861 19.5391 32.5305 19.6403 32.7107 19.8205C32.8909 20.0007 32.9922 20.2451 32.9922 20.5C32.9881 23.6453 31.799 26.6736 29.6619 28.9813C27.5248 31.2891 24.5967 32.7069 21.4609 32.9521Z" fill="white"/>
</svg>
