<svg width="24" height="24" viewBox="0 0 24 24" fill="none" xmlns="http://www.w3.org/2000/svg">
<path fill-rule="evenodd" clip-rule="evenodd" d="M3.92623 5.53848C3.57431 5.53848 3.2368 5.68435 2.98796 5.94402C2.73911 6.20369 2.59931 6.55587 2.59931 6.92309V20.7692C2.59931 21.1365 2.73911 21.4887 2.98796 21.7483C3.2368 22.008 3.57431 22.1539 3.92623 22.1539H17.1955C17.3697 22.1539 17.5423 22.118 17.7033 22.0485C17.8642 21.9789 18.0105 21.8769 18.1337 21.7483C18.257 21.6197 18.3547 21.4671 18.4214 21.2991C18.4881 21.1311 18.5224 20.9511 18.5224 20.7692V10.1539C18.5224 9.64406 18.9184 9.23078 19.407 9.23078C19.8956 9.23078 20.2916 9.64406 20.2916 10.1539V20.7692C20.2916 21.1935 20.2115 21.6136 20.0559 22.0056C19.9003 22.3976 19.6723 22.7537 19.3848 23.0537C19.0973 23.3537 18.756 23.5917 18.3803 23.7541C18.0047 23.9164 17.6021 24 17.1955 24H3.92623C3.10508 24 2.31756 23.6596 1.73692 23.0537C1.15628 22.4479 0.830078 21.6261 0.830078 20.7692V6.92309C0.830078 6.06624 1.15628 5.24448 1.73692 4.63859C2.31756 4.03271 3.10508 3.69232 3.92623 3.69232H13.1859C13.6745 3.69232 14.0706 4.1056 14.0706 4.6154C14.0706 5.1252 13.6745 5.53848 13.1859 5.53848H3.92623Z" fill="black"/>
<path fill-rule="evenodd" clip-rule="evenodd" d="M15.8691 0.923077C15.8691 0.413276 16.2652 0 16.7538 0H22.9461C23.4346 0 23.8307 0.413276 23.8307 0.923077V7.38462C23.8307 7.89442 23.4346 8.30769 22.9461 8.30769C22.4575 8.30769 22.0614 7.89442 22.0614 7.38462V1.84615H16.7538C16.2652 1.84615 15.8691 1.43288 15.8691 0.923077Z" fill="black"/>
<path fill-rule="evenodd" clip-rule="evenodd" d="M23.1282 0.731911C23.4737 1.09239 23.4737 1.67685 23.1282 2.03734L11.1859 14.4989C10.8405 14.8594 10.2803 14.8594 9.93488 14.4989C9.58942 14.1384 9.58942 13.5539 9.93488 13.1934L21.8772 0.731911C22.2227 0.371427 22.7828 0.371427 23.1282 0.731911Z" fill="black"/>
</svg>
