<svg width="28" height="28" viewBox="0 0 28 28" fill="none" xmlns="http://www.w3.org/2000/svg">
<path d="M12.3543 24.2107H10.9658C9.19811 24.2107 7.50284 23.5085 6.25291 22.2586C5.00298 21.0086 4.30078 19.3134 4.30078 17.5457V10.3253C4.30078 8.55761 5.00298 6.86234 6.25291 5.61241C7.50284 4.36248 9.19811 3.66028 10.9658 3.66028H18.1862C19.9539 3.66028 21.6491 4.36248 22.8991 5.61241C24.149 6.86234 24.8512 8.55761 24.8512 10.3253V11.7138" stroke="#1678F2" stroke-width="1.5" stroke-linecap="round"/>
<path d="M18.9817 19.3389L18.4152 22.6259C18.3418 22.8888 18.187 23.1218 17.973 23.2914C17.7591 23.461 17.4969 23.5585 17.2241 23.57C16.9514 23.5815 16.6819 23.5063 16.4545 23.3553C16.2271 23.2042 16.0533 22.9851 15.958 22.7292L12.8599 13.9736C12.7753 13.7421 12.7585 13.4913 12.8117 13.2506C12.8648 13.0099 12.9857 12.7894 13.16 12.6152C13.3342 12.4409 13.5547 12.32 13.7954 12.2669C14.0361 12.2137 14.2869 12.2305 14.5184 12.3151L23.445 15.4121C23.7102 15.5035 23.9385 15.6787 24.0954 15.9112C24.2523 16.1437 24.3293 16.4209 24.3149 16.701C24.3005 16.9811 24.1954 17.2489 24.0154 17.4641C23.8355 17.6792 23.5904 17.83 23.3173 17.8937L19.8593 18.4602C19.6511 18.5215 19.4617 18.634 19.3083 18.7876C19.155 18.9411 19.0427 19.1307 18.9817 19.3389Z" stroke="#1678F2" stroke-width="1.5" stroke-linecap="round" stroke-linejoin="round"/>
</svg>
