<svg width="32" height="32" viewBox="0 0 32 32" fill="none" xmlns="http://www.w3.org/2000/svg">
<g clip-path="url(#clip0_647_6339)">
<path d="M15.9997 24.3201C11.3917 24.3201 7.67969 20.6081 7.67969 16.0001C7.67969 13.9521 8.44769 12.0321 9.79169 10.4961L10.7517 11.3281C9.59969 12.6081 8.95969 14.2721 8.95969 16.0001C8.95969 19.9041 12.0957 23.0401 15.9997 23.0401C17.0237 23.0401 17.9837 22.8481 18.9437 22.4001L19.4557 23.5521C18.3677 24.0641 17.2157 24.3201 15.9997 24.3201ZM22.2077 21.5681L21.2477 20.7361C22.3997 19.4561 23.0397 17.7921 23.0397 16.0641C23.0397 12.1601 19.9037 9.02414 15.9997 9.02414C14.9757 9.02414 14.0157 9.21614 13.0557 9.66414L12.5437 8.51214C13.6317 8.00014 14.7837 7.74414 15.9997 7.74414C20.6077 7.74414 24.3197 11.4561 24.3197 16.0641C24.3197 18.0481 23.5517 20.0321 22.2077 21.5681Z" fill="#3A8EF6"/>
<path d="M11.5184 15.3602H10.2384V11.5202H6.39844V10.2402H11.5184V15.3602ZM25.5984 21.7602H20.4784V16.6402H21.7584V20.4802H25.5984V21.7602Z" fill="#3A8EF6"/>
</g>
<defs>
<clipPath id="clip0_647_6339">
<rect width="32" height="32" fill="white"/>
</clipPath>
</defs>
</svg>
