<svg width="51" height="51" viewBox="0 0 51 51" fill="none" xmlns="http://www.w3.org/2000/svg">
<path d="M25.5 32.5826C27.8481 32.5826 29.75 30.9974 29.75 29.0424C29.75 27.0874 27.8481 25.5 25.5 25.5C23.1519 25.5 21.25 23.9147 21.25 21.9576C21.25 20.0026 23.1519 18.4174 25.5 18.4174M25.5 32.5826C23.1519 32.5826 21.25 30.9974 21.25 29.0424M25.5 32.5826V34M25.5 18.4174V17M25.5 18.4174C27.8481 18.4174 29.75 20.0026 29.75 21.9576" stroke="#333333" stroke-width="2" stroke-linecap="round"/>
<path d="M36.125 7.09327C32.896 5.22519 29.2304 4.24428 25.5 4.25003C13.7636 4.25003 4.25 13.7636 4.25 25.5C4.25 28.9 5.049 32.113 6.46638 34.9626C6.84463 35.7191 6.97 36.584 6.75113 37.4021L5.48675 42.1324C5.36152 42.6005 5.36164 43.0933 5.48708 43.5614C5.61252 44.0295 5.85888 44.4563 6.20142 44.7991C6.54396 45.1418 6.97064 45.3884 7.43862 45.5142C7.9066 45.6399 8.39943 45.6403 8.86763 45.5154L13.5979 44.2489C14.419 44.0423 15.2873 44.1428 16.0395 44.5315C18.9782 45.9949 22.2171 46.7544 25.5 46.75C37.2364 46.75 46.75 37.2364 46.75 25.5C46.75 21.6304 45.7151 17.9988 43.9068 14.875" stroke="#333333" stroke-width="2" stroke-linecap="round"/>
</svg>
