<svg width="16" height="16" viewBox="0 0 16 16" fill="none" xmlns="http://www.w3.org/2000/svg">
<path d="M14.439 14.9991C14.35 15.0003 14.2624 14.9778 14.185 14.9339C14.1077 14.8899 14.0435 14.8261 13.999 14.7491C13.3331 13.6146 12.3839 12.6726 11.2445 12.0152C10.1051 11.3579 8.81442 11.0077 7.49899 10.9991V13.9991C7.4985 14.0978 7.4688 14.1942 7.41363 14.276C7.35847 14.3579 7.2803 14.4216 7.18899 14.4591C7.09794 14.4974 6.99758 14.5078 6.90059 14.4892C6.80359 14.4705 6.7143 14.4235 6.64399 14.3541L0.643993 8.35409C0.597129 8.30761 0.559932 8.25231 0.534547 8.19138C0.509163 8.13045 0.496094 8.0651 0.496094 7.99909C0.496094 7.93308 0.509163 7.86773 0.534547 7.8068C0.559932 7.74587 0.597129 7.69057 0.643993 7.64409L6.64399 1.64409C6.7143 1.57471 6.80359 1.52772 6.90059 1.50903C6.99758 1.49034 7.09794 1.5008 7.18899 1.53909C7.2803 1.5766 7.35847 1.6403 7.41363 1.72216C7.4688 1.80402 7.4985 1.90038 7.49899 1.99909V5.05409C9.56759 5.31979 11.469 6.32857 12.8489 7.89242C14.2288 9.45627 14.9929 11.4685 14.999 13.5541C14.9978 13.8884 14.9761 14.2224 14.934 14.5541C14.9215 14.6581 14.8767 14.7556 14.8058 14.8327C14.7349 14.9099 14.6416 14.9628 14.539 14.9841L14.439 14.9991ZM7.24899 9.99909C8.5242 9.98077 9.78817 10.2395 10.9536 10.7575C12.119 11.2755 13.1581 12.0403 13.999 12.9991C13.8486 11.1853 13.0568 9.48441 11.7657 8.20158C10.4746 6.91875 8.76873 6.1379 6.95399 5.99909C6.82933 5.98783 6.71343 5.93022 6.62919 5.83764C6.54494 5.74506 6.49849 5.62426 6.49899 5.49909V3.20409L1.70399 7.99909L6.49899 12.7941V10.4991C6.49899 10.3665 6.55167 10.2393 6.64544 10.1455C6.73921 10.0518 6.86638 9.99909 6.99899 9.99909H7.26899H7.24899Z" fill="black"/>
</svg>
