<svg width="59" height="59" viewBox="0 0 59 59" fill="none" xmlns="http://www.w3.org/2000/svg">
<mask id="path-1-inside-1_425_10334" fill="white">
<path d="M53.246 23.1369C56.7565 36.2497 48.9759 49.7312 35.8607 53.2441C24.5572 56.2728 12.9883 50.9087 7.75454 40.9771C7.45071 40.4 7.38854 39.726 7.58171 39.1031C7.77488 38.4803 8.20757 37.9597 8.78458 37.6558C9.36159 37.352 10.0357 37.2899 10.6585 37.483C11.2814 37.6762 11.802 38.1089 12.1058 38.6859C14.2124 42.6745 17.6261 45.8178 21.7747 47.5887C25.9232 49.3597 30.5545 49.6508 34.8921 48.4131C39.2298 47.1754 43.0101 44.4843 45.5995 40.7908C48.1889 37.0973 49.4299 32.6259 49.1145 28.1262C48.7992 23.6264 46.9465 19.3719 43.8673 16.0757C40.788 12.7795 36.6692 10.642 32.2013 10.0215C27.7334 9.401 23.1881 10.3352 19.3271 12.6676C15.4661 14.9999 12.5243 18.5886 10.9946 22.8321L13.5931 22.2544C16.5087 21.6029 18.1705 25.465 15.6925 27.1342L9.12137 31.5641C7.35629 32.7515 4.89304 31.5248 4.91025 29.3073C4.95447 23.9287 6.76096 18.713 10.0529 14.4593C13.3449 10.2055 17.9408 7.14848 23.1363 5.75651C36.2491 2.23618 49.7306 10.0193 53.2435 23.132M29.4985 14.7491C30.1505 14.7491 30.7758 15.0081 31.2368 15.4691C31.6978 15.9302 31.9568 16.5554 31.9568 17.2074V19.6658H36.8735C37.5255 19.6658 38.1508 19.9248 38.6118 20.3858C39.0728 20.8468 39.3318 21.4721 39.3318 22.1241C39.3318 22.7761 39.0728 23.4014 38.6118 23.8624C38.1508 24.3234 37.5255 24.5824 36.8735 24.5824H24.5818C24.2558 24.5824 23.9432 24.7119 23.7127 24.9424C23.4822 25.173 23.3527 25.4856 23.3527 25.8116C23.3527 26.1376 23.4822 26.4502 23.7127 26.6808C23.9432 26.9113 24.2558 27.0408 24.5818 27.0408H34.4152C36.0451 27.0408 37.6084 27.6883 38.7609 28.8408C39.9135 29.9934 40.561 31.5566 40.561 33.1866C40.561 34.8166 39.9135 36.3798 38.7609 37.5324C37.6084 38.6849 36.0451 39.3324 34.4152 39.3324H31.9568V41.7908C31.9568 42.4428 31.6978 43.068 31.2368 43.5291C30.7758 43.9901 30.1505 44.2491 29.4985 44.2491C28.8465 44.2491 28.2212 43.9901 27.7602 43.5291C27.2992 43.068 27.0402 42.4428 27.0402 41.7908V39.3324H22.1235C21.4715 39.3324 20.8462 39.0734 20.3852 38.6124C19.9242 38.1514 19.6652 37.5261 19.6652 36.8741C19.6652 36.2221 19.9242 35.5968 20.3852 35.1358C20.8462 34.6748 21.4715 34.4158 22.1235 34.4158H34.4152C34.7412 34.4158 35.0538 34.2863 35.2843 34.0558C35.5148 33.8252 35.6443 33.5126 35.6443 33.1866C35.6443 32.8606 35.5148 32.548 35.2843 32.3174C35.0538 32.0869 34.7412 31.9574 34.4152 31.9574H24.5818C22.9519 31.9574 21.3886 31.3099 20.2361 30.1574C19.0835 29.0048 18.436 27.4416 18.436 25.8116C18.436 24.1816 19.0835 22.6184 20.2361 21.4658C21.3886 20.3133 22.9519 19.6658 24.5818 19.6658H27.0402V17.2074C27.0402 16.5554 27.2992 15.9302 27.7602 15.4691C28.2212 15.0081 28.8465 14.7491 29.4985 14.7491Z"/>
</mask>
<path d="M53.246 23.1369C56.7565 36.2497 48.9759 49.7312 35.8607 53.2441C24.5572 56.2728 12.9883 50.9087 7.75454 40.9771C7.45071 40.4 7.38854 39.726 7.58171 39.1031C7.77488 38.4803 8.20757 37.9597 8.78458 37.6558C9.36159 37.352 10.0357 37.2899 10.6585 37.483C11.2814 37.6762 11.802 38.1089 12.1058 38.6859C14.2124 42.6745 17.6261 45.8178 21.7747 47.5887C25.9232 49.3597 30.5545 49.6508 34.8921 48.4131C39.2298 47.1754 43.0101 44.4843 45.5995 40.7908C48.1889 37.0973 49.4299 32.6259 49.1145 28.1262C48.7992 23.6264 46.9465 19.3719 43.8673 16.0757C40.788 12.7795 36.6692 10.642 32.2013 10.0215C27.7334 9.401 23.1881 10.3352 19.3271 12.6676C15.4661 14.9999 12.5243 18.5886 10.9946 22.8321L13.5931 22.2544C16.5087 21.6029 18.1705 25.465 15.6925 27.1342L9.12137 31.5641C7.35629 32.7515 4.89304 31.5248 4.91025 29.3073C4.95447 23.9287 6.76096 18.713 10.0529 14.4593C13.3449 10.2055 17.9408 7.14848 23.1363 5.75651C36.2491 2.23618 49.7306 10.0193 53.2435 23.132M29.4985 14.7491C30.1505 14.7491 30.7758 15.0081 31.2368 15.4691C31.6978 15.9302 31.9568 16.5554 31.9568 17.2074V19.6658H36.8735C37.5255 19.6658 38.1508 19.9248 38.6118 20.3858C39.0728 20.8468 39.3318 21.4721 39.3318 22.1241C39.3318 22.7761 39.0728 23.4014 38.6118 23.8624C38.1508 24.3234 37.5255 24.5824 36.8735 24.5824H24.5818C24.2558 24.5824 23.9432 24.7119 23.7127 24.9424C23.4822 25.173 23.3527 25.4856 23.3527 25.8116C23.3527 26.1376 23.4822 26.4502 23.7127 26.6808C23.9432 26.9113 24.2558 27.0408 24.5818 27.0408H34.4152C36.0451 27.0408 37.6084 27.6883 38.7609 28.8408C39.9135 29.9934 40.561 31.5566 40.561 33.1866C40.561 34.8166 39.9135 36.3798 38.7609 37.5324C37.6084 38.6849 36.0451 39.3324 34.4152 39.3324H31.9568V41.7908C31.9568 42.4428 31.6978 43.068 31.2368 43.5291C30.7758 43.9901 30.1505 44.2491 29.4985 44.2491C28.8465 44.2491 28.2212 43.9901 27.7602 43.5291C27.2992 43.068 27.0402 42.4428 27.0402 41.7908V39.3324H22.1235C21.4715 39.3324 20.8462 39.0734 20.3852 38.6124C19.9242 38.1514 19.6652 37.5261 19.6652 36.8741C19.6652 36.2221 19.9242 35.5968 20.3852 35.1358C20.8462 34.6748 21.4715 34.4158 22.1235 34.4158H34.4152C34.7412 34.4158 35.0538 34.2863 35.2843 34.0558C35.5148 33.8252 35.6443 33.5126 35.6443 33.1866C35.6443 32.8606 35.5148 32.548 35.2843 32.3174C35.0538 32.0869 34.7412 31.9574 34.4152 31.9574H24.5818C22.9519 31.9574 21.3886 31.3099 20.2361 30.1574C19.0835 29.0048 18.436 27.4416 18.436 25.8116C18.436 24.1816 19.0835 22.6184 20.2361 21.4658C21.3886 20.3133 22.9519 19.6658 24.5818 19.6658H27.0402V17.2074C27.0402 16.5554 27.2992 15.9302 27.7602 15.4691C28.2212 15.0081 28.8465 14.7491 29.4985 14.7491Z" fill="#333333"/>
<path d="M35.8607 53.2441L35.4338 51.6503L35.4336 51.6504L35.8607 53.2441ZM7.75454 40.9771L6.29457 41.7458L6.29482 41.7463L7.75454 40.9771ZM12.1058 38.6859L10.6458 39.4546L10.6468 39.4565L12.1058 38.6859ZM10.9946 22.8321L9.44239 22.2726L8.42552 25.0936L11.3527 24.4428L10.9946 22.8321ZM13.5931 22.2544L13.9512 23.8651L13.9529 23.8647L13.5931 22.2544ZM15.6925 27.1342L14.7707 25.7657L14.7702 25.766L15.6925 27.1342ZM9.12137 31.5641L10.0423 32.9332L10.0437 32.9322L9.12137 31.5641ZM4.91025 29.3073L3.2603 29.2938L3.2603 29.2945L4.91025 29.3073ZM23.1363 5.75651L23.5633 7.3503L23.5641 7.35008L23.1363 5.75651ZM29.4985 14.7491V16.3991V14.7491ZM31.9568 19.6658H30.3068V21.3158H31.9568V19.6658ZM36.8735 19.6658V21.3158V19.6658ZM31.9568 39.3324V37.6824H30.3068V39.3324H31.9568ZM27.0402 39.3324H28.6902V37.6824H27.0402V39.3324ZM19.6652 36.8741H21.3152H19.6652ZM18.436 25.8116H16.786H18.436ZM24.5818 19.6658V18.0158V19.6658ZM27.0402 19.6658V21.3158H28.6902V19.6658H27.0402ZM51.6521 23.5636C54.9271 35.7967 47.6683 48.3732 35.4338 51.6503L36.2876 54.838C50.2834 51.0891 58.5859 36.7027 54.8399 22.7102L51.6521 23.5636ZM35.4336 51.6504C24.8912 54.4751 14.0969 49.4732 9.21425 40.2078L6.29482 41.7463C11.8797 52.3442 24.2233 58.0705 36.2877 54.8379L35.4336 51.6504ZM9.21451 40.2083C9.11457 40.0185 9.09412 39.7968 9.15766 39.5919L6.00577 38.6144C5.68297 39.6552 5.78685 40.7816 6.29457 41.7458L9.21451 40.2083ZM9.15766 39.5919C9.2212 39.387 9.36353 39.2158 9.55333 39.1158L8.01583 36.1959C7.0516 36.7036 6.32857 37.5735 6.00577 38.6144L9.15766 39.5919ZM9.55333 39.1158C9.74313 39.0159 9.96487 38.9954 10.1697 39.059L11.1473 35.9071C10.1065 35.5843 8.98005 35.6882 8.01583 36.1959L9.55333 39.1158ZM10.1697 39.059C10.3746 39.1225 10.5459 39.2648 10.6458 39.4546L13.5658 37.9171C13.058 36.9529 12.1881 36.2299 11.1473 35.9071L10.1697 39.059ZM10.6468 39.4565C12.9301 43.7797 16.6302 47.1867 21.1269 49.1062L22.4225 46.0712C18.622 44.4488 15.4947 41.5693 13.5648 37.9153L10.6468 39.4565ZM21.1269 49.1062C25.6235 51.0258 30.6433 51.3413 35.3449 49.9998L34.4394 46.8264C30.4657 47.9602 26.223 47.6936 22.4225 46.0712L21.1269 49.1062ZM35.3449 49.9998C40.0464 48.6583 44.1439 45.7413 46.9506 41.738L44.2485 39.8436C41.8763 43.2272 38.4131 45.6926 34.4394 46.8264L35.3449 49.9998ZM46.9506 41.738C49.7572 37.7346 51.1023 32.888 50.7605 28.0108L47.4686 28.2415C47.7575 32.3637 46.6206 36.46 44.2485 39.8436L46.9506 41.738ZM50.7605 28.0108C50.4187 23.1336 48.4106 18.5221 45.073 14.9493L42.6615 17.2021C45.4825 20.2217 47.1797 24.1193 47.4686 28.2415L50.7605 28.0108ZM45.073 14.9493C41.7354 11.3766 37.271 9.05973 32.4283 8.38718L31.9743 11.6558C36.0674 12.2242 39.8406 14.1824 42.6615 17.2021L45.073 14.9493ZM32.4283 8.38718C27.5856 7.71462 22.6588 8.72723 18.4739 11.2553L20.1802 14.0799C23.7173 11.9432 27.8813 11.0874 31.9743 11.6558L32.4283 8.38718ZM18.4739 11.2553C14.289 13.7833 11.1003 17.6731 9.44239 22.2726L12.5469 23.3916C13.9482 19.5042 16.6432 16.2165 20.1802 14.0799L18.4739 11.2553ZM11.3527 24.4428L13.9512 23.8651L13.235 20.6437L10.6365 21.2214L11.3527 24.4428ZM13.9529 23.8647C15.0887 23.6109 15.7361 25.1154 14.7707 25.7657L16.6143 28.5027C20.6049 25.8145 17.9287 19.595 13.2333 20.6441L13.9529 23.8647ZM14.7702 25.766L8.19904 30.196L10.0437 32.9322L16.6148 28.5023L14.7702 25.766ZM8.2004 30.195C7.48843 30.674 6.55373 30.1536 6.5602 29.3202L3.2603 29.2945C3.23235 32.8959 7.22414 34.829 10.0423 32.9332L8.2004 30.195ZM6.56019 29.3209C6.60144 24.3032 8.28673 19.4374 11.3578 15.4691L8.74806 13.4494C5.2352 17.9886 3.30749 23.5543 3.2603 29.2938L6.56019 29.3209ZM11.3578 15.4691C14.4289 11.5008 18.7164 8.64887 23.5633 7.3503L22.7093 4.16272C17.1652 5.64809 12.2609 8.91027 8.74806 13.4494L11.3578 15.4691ZM23.5641 7.35008C35.7962 4.06619 48.3726 11.3265 51.6497 23.559L54.8373 22.705C51.0885 8.712 36.702 0.406164 22.7085 4.16294L23.5641 7.35008ZM29.4985 16.3991C29.7129 16.3991 29.9185 16.4843 30.0701 16.6359L32.4035 14.3024C31.6331 13.5319 30.5881 13.0991 29.4985 13.0991V16.3991ZM30.0701 16.6359C30.2217 16.7874 30.3068 16.993 30.3068 17.2074H33.6068C33.6068 16.1178 33.174 15.0729 32.4035 14.3024L30.0701 16.6359ZM30.3068 17.2074V19.6658H33.6068V17.2074H30.3068ZM31.9568 21.3158H36.8735V18.0158H31.9568V21.3158ZM36.8735 21.3158C37.0879 21.3158 37.2935 21.4009 37.4451 21.5525L39.7785 19.2191C39.0081 18.4486 37.9631 18.0158 36.8735 18.0158V21.3158ZM37.4451 21.5525C37.5967 21.7041 37.6818 21.9097 37.6818 22.1241H40.9818C40.9818 21.0345 40.549 19.9895 39.7785 19.2191L37.4451 21.5525ZM37.6818 22.1241C37.6818 22.3385 37.5967 22.5441 37.4451 22.6957L39.7785 25.0291C40.549 24.2587 40.9818 23.2137 40.9818 22.1241H37.6818ZM37.4451 22.6957C37.2935 22.8473 37.0879 22.9324 36.8735 22.9324V26.2324C37.9631 26.2324 39.0081 25.7996 39.7785 25.0291L37.4451 22.6957ZM36.8735 22.9324H24.5818V26.2324H36.8735V22.9324ZM24.5818 22.9324C23.8182 22.9324 23.0859 23.2358 22.5459 23.7757L24.8794 26.1092C24.8005 26.1881 24.6934 26.2324 24.5818 26.2324V22.9324ZM22.5459 23.7757C22.006 24.3157 21.7027 25.048 21.7027 25.8116H25.0027C25.0027 25.9232 24.9583 26.0302 24.8794 26.1092L22.5459 23.7757ZM21.7027 25.8116C21.7027 26.5752 22.006 27.3075 22.5459 27.8475L24.8794 25.514C24.9583 25.593 25.0027 25.7 25.0027 25.8116H21.7027ZM22.5459 27.8475C23.0859 28.3874 23.8182 28.6908 24.5818 28.6908V25.3908C24.6934 25.3908 24.8005 25.4351 24.8794 25.514L22.5459 27.8475ZM24.5818 28.6908H34.4152V25.3908H24.5818V28.6908ZM34.4152 28.6908C35.6075 28.6908 36.7511 29.1644 37.5942 30.0076L39.9276 27.6741C38.4656 26.2121 36.4827 25.3908 34.4152 25.3908V28.6908ZM37.5942 30.0076C38.4373 30.8507 38.911 31.9942 38.911 33.1866H42.211C42.211 31.119 41.3896 29.1361 39.9276 27.6741L37.5942 30.0076ZM38.911 33.1866C38.911 34.379 38.4373 35.5225 37.5942 36.3656L39.9276 38.6991C41.3896 37.2371 42.211 35.2542 42.211 33.1866H38.911ZM37.5942 36.3656C36.7511 37.2088 35.6075 37.6824 34.4152 37.6824V40.9824C36.4827 40.9824 38.4656 40.1611 39.9276 38.6991L37.5942 36.3656ZM34.4152 37.6824H31.9568V40.9824H34.4152V37.6824ZM30.3068 39.3324V41.7908H33.6068V39.3324H30.3068ZM30.3068 41.7908C30.3068 42.0052 30.2217 42.2108 30.0701 42.3623L32.4035 44.6958C33.174 43.9253 33.6068 42.8804 33.6068 41.7908H30.3068ZM30.0701 42.3623C29.9185 42.5139 29.7129 42.5991 29.4985 42.5991V45.8991C30.5881 45.8991 31.6331 45.4663 32.4035 44.6958L30.0701 42.3623ZM29.4985 42.5991C29.2841 42.5991 29.0785 42.5139 28.9269 42.3623L26.5935 44.6958C27.3639 45.4663 28.4089 45.8991 29.4985 45.8991V42.5991ZM28.9269 42.3623C28.7753 42.2108 28.6902 42.0052 28.6902 41.7908H25.3902C25.3902 42.8804 25.823 43.9253 26.5935 44.6958L28.9269 42.3623ZM28.6902 41.7908V39.3324H25.3902V41.7908H28.6902ZM27.0402 37.6824H22.1235V40.9824H27.0402V37.6824ZM22.1235 37.6824C21.9091 37.6824 21.7035 37.5973 21.5519 37.4457L19.2185 39.7791C19.9889 40.5496 21.0339 40.9824 22.1235 40.9824V37.6824ZM21.5519 37.4457C21.4003 37.2941 21.3152 37.0885 21.3152 36.8741H18.0152C18.0152 37.9637 18.448 39.0087 19.2185 39.7791L21.5519 37.4457ZM21.3152 36.8741C21.3152 36.6597 21.4003 36.4541 21.5519 36.3025L19.2185 33.9691C18.448 34.7395 18.0152 35.7845 18.0152 36.8741H21.3152ZM21.5519 36.3025C21.7035 36.1509 21.9091 36.0658 22.1235 36.0658V32.7658C21.0339 32.7658 19.9889 33.1986 19.2185 33.9691L21.5519 36.3025ZM22.1235 36.0658H34.4152V32.7658H22.1235V36.0658ZM34.4152 36.0658C35.1788 36.0658 35.9111 35.7624 36.451 35.2225L34.1176 32.889C34.1965 32.8101 34.3036 32.7658 34.4152 32.7658V36.0658ZM36.451 35.2225C36.991 34.6825 37.2943 33.9502 37.2943 33.1866H33.9943C33.9943 33.075 34.0387 32.968 34.1176 32.889L36.451 35.2225ZM37.2943 33.1866C37.2943 32.423 36.991 31.6907 36.451 31.1507L34.1176 33.4842C34.0387 33.4052 33.9943 33.2982 33.9943 33.1866H37.2943ZM36.451 31.1507C35.9111 30.6108 35.1788 30.3074 34.4152 30.3074V33.6074C34.3036 33.6074 34.1965 33.5631 34.1176 33.4842L36.451 31.1507ZM34.4152 30.3074H24.5818V33.6074H34.4152V30.3074ZM24.5818 30.3074C23.3895 30.3074 22.2459 29.8338 21.4028 28.9906L19.0693 31.3241C20.5313 32.7861 22.5142 33.6074 24.5818 33.6074V30.3074ZM21.4028 28.9906C20.5597 28.1475 20.086 27.004 20.086 25.8116H16.786C16.786 27.8792 17.6073 29.8621 19.0693 31.3241L21.4028 28.9906ZM20.086 25.8116C20.086 24.6192 20.5597 23.4757 21.4028 22.6326L19.0693 20.2991C17.6073 21.7611 16.786 23.744 16.786 25.8116H20.086ZM21.4028 22.6326C22.2459 21.7894 23.3895 21.3158 24.5818 21.3158V18.0158C22.5142 18.0158 20.5313 18.8371 19.0693 20.2991L21.4028 22.6326ZM24.5818 21.3158H27.0402V18.0158H24.5818V21.3158ZM28.6902 19.6658V17.2074H25.3902V19.6658H28.6902ZM28.6902 17.2074C28.6902 16.993 28.7753 16.7874 28.9269 16.6359L26.5935 14.3024C25.823 15.0729 25.3902 16.1178 25.3902 17.2074H28.6902ZM28.9269 16.6359C29.0785 16.4843 29.2841 16.3991 29.4985 16.3991V13.0991C28.4089 13.0991 27.3639 13.5319 26.5935 14.3024L28.9269 16.6359Z" fill="white" mask="url(#path-1-inside-1_425_10334)"/>
</svg>
