<svg width="24" height="24" viewBox="0 0 24 24" fill="none" xmlns="http://www.w3.org/2000/svg">
<g clip-path="url(#clip0_434_2742)">
<path d="M15.5986 12.9091L15.9829 12.525H15.4395H6.75C6.61076 12.525 6.47723 12.4697 6.37877 12.3712C6.28031 12.2728 6.225 12.1392 6.225 12C6.225 11.8608 6.28031 11.7272 6.37877 11.6288C6.47723 11.5303 6.61076 11.475 6.75 11.475H15.4395H15.9829L15.5986 11.0909L12.3781 7.8719C12.3781 7.87189 12.3781 7.87188 12.3781 7.87186C12.3292 7.82303 12.2905 7.76507 12.2641 7.70127L12.0562 7.78738L12.2641 7.70127C12.2377 7.63746 12.2241 7.56907 12.2241 7.5C12.2241 7.43093 12.2377 7.36254 12.2641 7.29873L12.0562 7.21262L12.2641 7.29873C12.2905 7.23492 12.3293 7.17694 12.3781 7.1281C12.4269 7.07926 12.4849 7.04052 12.5487 7.01409C12.6125 6.98766 12.6809 6.97405 12.75 6.97405C12.8191 6.97405 12.8875 6.98766 12.9513 7.01409C13.0151 7.04052 13.0731 7.07926 13.1219 7.1281L17.6219 11.6281L17.6221 11.6283C17.671 11.6771 17.7098 11.735 17.7362 11.7988C17.7627 11.8626 17.7763 11.9309 17.7763 12C17.7763 12.0691 17.7627 12.1374 17.7362 12.2012C17.7098 12.265 17.671 12.3229 17.6221 12.3717L17.6219 12.3719L13.1219 16.8719C13.0731 16.9207 13.0151 16.9595 12.9513 16.9859C12.8875 17.0123 12.8191 17.0259 12.75 17.0259C12.6809 17.0259 12.6125 17.0123 12.5487 16.9859C12.4849 16.9595 12.4269 16.9207 12.3781 16.8719C12.3293 16.8231 12.2905 16.7651 12.2641 16.7013C12.2377 16.6375 12.2241 16.5691 12.2241 16.5C12.2241 16.4309 12.2377 16.3625 12.2641 16.2987C12.2905 16.2349 12.3292 16.177 12.3781 16.1281C12.3781 16.1281 12.3781 16.1281 12.3781 16.1281L15.5986 12.9091ZM1.275 12C1.275 14.8444 2.40495 17.5724 4.41628 19.5837C6.42761 21.595 9.15555 22.725 12 22.725C14.8444 22.725 17.5724 21.595 19.5837 19.5837C21.595 17.5724 22.725 14.8444 22.725 12C22.725 9.15555 21.595 6.42761 19.5837 4.41628C17.5724 2.40495 14.8444 1.275 12 1.275C9.15555 1.275 6.42761 2.40495 4.41628 4.41628C2.40495 6.42761 1.275 9.15555 1.275 12ZM23.775 12C23.775 15.1229 22.5344 18.1179 20.3262 20.3262C18.1179 22.5344 15.1229 23.775 12 23.775C8.87708 23.775 5.88206 22.5344 3.67382 20.3262C1.46558 18.1179 0.225 15.1229 0.225 12C0.225 8.87708 1.46558 5.88206 3.67382 3.67382C5.88206 1.46558 8.87708 0.225 12 0.225C15.1229 0.225 18.1179 1.46558 20.3262 3.67382C22.5344 5.88206 23.775 8.87708 23.775 12Z" fill="#031432" stroke="white" stroke-width="0.45"/>
</g>
<defs>
<clipPath id="clip0_434_2742">
<rect width="24" height="24" fill="white"/>
</clipPath>
</defs>
</svg>
