<svg width="25" height="25" viewBox="0 0 25 25" fill="none" xmlns="http://www.w3.org/2000/svg">
<path opacity="0.2" d="M20.3125 19.5313C20.3125 20.1493 20.1292 20.7535 19.7858 21.2674C19.4425 21.7813 18.9544 22.1819 18.3834 22.4184C17.8124 22.6549 17.184 22.7168 16.5778 22.5962C15.9717 22.4756 15.4148 22.178 14.9778 21.741C14.5408 21.3039 14.2431 20.7471 14.1225 20.1409C14.002 19.5347 14.0639 18.9064 14.3004 18.3354C14.5369 17.7643 14.9374 17.2763 15.4513 16.9329C15.9652 16.5895 16.5694 16.4063 17.1875 16.4063C18.0163 16.4063 18.8112 16.7355 19.3972 17.3215C19.9833 17.9076 20.3125 18.7025 20.3125 19.5313ZM17.1875 8.59375C17.8056 8.59375 18.4098 8.41047 18.9237 8.06709C19.4376 7.72371 19.8381 7.23566 20.0746 6.66464C20.3112 6.09362 20.373 5.46529 20.2525 4.85909C20.1319 4.2529 19.8342 3.69608 19.3972 3.25904C18.9602 2.822 18.4034 2.52438 17.7972 2.4038C17.191 2.28322 16.5626 2.3451 15.9916 2.58163C15.4206 2.81815 14.9325 3.21869 14.5892 3.73259C14.2458 4.2465 14.0625 4.85069 14.0625 5.46875C14.0625 6.29755 14.3917 7.09241 14.9778 7.67846C15.5638 8.26451 16.3587 8.59375 17.1875 8.59375Z" fill="#1678F2"/>
<path d="M17.1869 15.6242C16.6657 15.6241 16.1498 15.7285 15.6698 15.9313C15.1897 16.1341 14.7552 16.4311 14.392 16.8049L9.89001 13.9113C10.2441 13.0032 10.2441 11.9952 9.89001 11.0871L14.392 8.19356C15.0682 8.88625 15.9775 9.30318 16.9437 9.3635C17.9099 9.42383 18.864 9.12326 19.6211 8.52007C20.3783 7.91687 20.8845 7.05403 21.0416 6.09882C21.1987 5.14361 20.9955 4.16409 20.4715 3.35017C19.9474 2.53625 19.1398 1.94591 18.2052 1.69361C17.2706 1.4413 16.2757 1.54501 15.4132 1.98463C14.5507 2.42424 13.8822 3.16844 13.5373 4.07294C13.1923 4.97744 13.1955 5.9778 13.5463 6.88008L9.0443 9.77363C8.50218 9.21707 7.8064 8.83481 7.0459 8.67573C6.28541 8.51664 5.49475 8.58796 4.77499 8.88057C4.05524 9.17317 3.43909 9.67377 3.00532 10.3184C2.57154 10.963 2.33984 11.7223 2.33984 12.4992C2.33984 13.2762 2.57154 14.0355 3.00532 14.6801C3.43909 15.3247 4.05524 15.8253 4.77499 16.1179C5.49475 16.4105 6.28541 16.4818 7.0459 16.3227C7.8064 16.1636 8.50218 15.7814 9.0443 15.2248L13.5463 18.1184C13.2447 18.8962 13.2 19.7502 13.4189 20.5553C13.6378 21.3603 14.1087 22.0742 14.7626 22.5922C15.4165 23.1103 16.2191 23.4054 17.0529 23.4344C17.8867 23.4633 18.7078 23.2245 19.3961 22.753C20.0843 22.2815 20.6035 21.602 20.8777 20.8141C21.1518 20.0261 21.1665 19.1711 20.9195 18.3742C20.6726 17.5773 20.177 16.8804 19.5053 16.3856C18.8336 15.8907 18.0212 15.6239 17.1869 15.6242ZM17.1869 3.12422C17.6504 3.12422 18.1036 3.26168 18.489 3.51921C18.8744 3.77675 19.1748 4.14279 19.3522 4.57106C19.5296 4.99932 19.576 5.47057 19.4856 5.92521C19.3952 6.37986 19.1719 6.79747 18.8442 7.12525C18.5164 7.45303 18.0988 7.67625 17.6441 7.76669C17.1895 7.85712 16.7182 7.81071 16.29 7.63331C15.8617 7.45592 15.4957 7.15552 15.2381 6.77009C14.9806 6.38466 14.8431 5.93152 14.8431 5.46797C14.8431 4.84637 15.0901 4.25023 15.5296 3.81069C15.9691 3.37115 16.5653 3.12422 17.1869 3.12422ZM6.24938 14.843C5.78583 14.843 5.33269 14.7055 4.94726 14.448C4.56184 14.1904 4.26143 13.8244 4.08404 13.3961C3.90665 12.9679 3.86023 12.4966 3.95067 12.042C4.0411 11.5873 4.26432 11.1697 4.5921 10.8419C4.91988 10.5142 5.3375 10.2909 5.79214 10.2005C6.24678 10.1101 6.71803 10.1565 7.1463 10.3339C7.57456 10.5113 7.9406 10.8117 8.19814 11.1971C8.45567 11.5825 8.59313 12.0357 8.59313 12.4992C8.59313 13.1208 8.3462 13.717 7.90666 14.1565C7.46713 14.596 6.87098 14.843 6.24938 14.843ZM17.1869 21.8742C16.7233 21.8742 16.2702 21.7368 15.8848 21.4792C15.4993 21.2217 15.1989 20.8556 15.0215 20.4274C14.8441 19.9991 14.7977 19.5279 14.8882 19.0732C14.9786 18.6186 15.2018 18.201 15.5296 17.8732C15.8574 17.5454 16.275 17.3222 16.7296 17.2318C17.1843 17.1413 17.6555 17.1877 18.0838 17.3651C18.5121 17.5425 18.8781 17.8429 19.1356 18.2283C19.3932 18.6138 19.5306 19.0669 19.5306 19.5305C19.5306 20.1521 19.2837 20.7482 18.8442 21.1877C18.4046 21.6273 17.8085 21.8742 17.1869 21.8742Z" fill="#1678F2"/>
</svg>
