<svg width="14" height="14" viewBox="0 0 14 14" fill="none" xmlns="http://www.w3.org/2000/svg">
<path d="M9.28302 8.43724C9.0016 8.43715 8.72302 8.49353 8.46377 8.60304C8.20453 8.71255 7.9699 8.87297 7.77377 9.07479L5.34271 7.51228C5.53394 7.0219 5.53394 6.47757 5.34271 5.9872L7.77377 4.42468C8.13893 4.79873 8.62997 5.02387 9.1517 5.05645C9.67343 5.08903 10.1887 4.92672 10.5975 4.60099C11.0064 4.27527 11.2797 3.80933 11.3646 3.29352C11.4494 2.77771 11.3397 2.24877 11.0567 1.80925C10.7737 1.36973 10.3376 1.05095 9.83292 0.914703C9.32825 0.77846 8.79096 0.834463 8.32523 1.07185C7.8595 1.30925 7.49851 1.71111 7.31224 2.19955C7.12597 2.68798 7.1277 3.22817 7.31709 3.7154L4.88603 5.27792C4.59329 4.97737 4.21757 4.77095 3.8069 4.68505C3.39623 4.59915 2.96927 4.63766 2.5806 4.79566C2.19194 4.95367 1.85922 5.22399 1.62498 5.57207C1.39074 5.92015 1.26562 6.33018 1.26562 6.74974C1.26562 7.16929 1.39074 7.57932 1.62498 7.9274C1.85922 8.27548 2.19194 8.5458 2.5806 8.70381C2.96927 8.86181 3.39623 8.90033 3.8069 8.81442C4.21757 8.72852 4.59329 8.5221 4.88603 8.22155L7.31709 9.78407C7.15423 10.2041 7.13013 10.6653 7.24832 11.1C7.36651 11.5347 7.62078 11.9202 7.9739 12.2C8.32701 12.4797 8.76042 12.6391 9.21066 12.6547C9.6609 12.6703 10.1043 12.5414 10.476 12.2868C10.8476 12.0322 11.128 11.6652 11.276 11.2398C11.4241 10.8143 11.432 10.3525 11.2987 9.92222C11.1653 9.4919 10.8977 9.11558 10.535 8.84836C10.1723 8.58114 9.73354 8.43707 9.28302 8.43724ZM9.28302 1.68724C9.53334 1.68724 9.77804 1.76146 9.98617 1.90053C10.1943 2.0396 10.3565 2.23726 10.4523 2.46853C10.5481 2.69979 10.5732 2.95427 10.5243 3.19977C10.4755 3.44528 10.355 3.67079 10.178 3.84779C10.001 4.02479 9.77544 4.14533 9.52994 4.19417C9.28443 4.243 9.02995 4.21794 8.79869 4.12215C8.56743 4.02635 8.36976 3.86414 8.2307 3.656C8.09163 3.44787 8.0174 3.20318 8.0174 2.95286C8.0174 2.6172 8.15074 2.29528 8.38809 2.05793C8.62544 1.82058 8.94736 1.68724 9.28302 1.68724ZM3.37677 8.01536C3.12646 8.01536 2.88176 7.94113 2.67363 7.80206C2.4655 7.663 2.30328 7.46533 2.20749 7.23407C2.1117 7.00281 2.08663 6.74833 2.13547 6.50283C2.1843 6.25732 2.30484 6.03181 2.48184 5.8548C2.65884 5.6778 2.88436 5.55726 3.12986 5.50843C3.37537 5.4596 3.62985 5.48466 3.86111 5.58045C4.09237 5.67624 4.29003 5.83846 4.4291 6.04659C4.56817 6.25472 4.6424 6.49942 4.6424 6.74974C4.6424 7.0854 4.50906 7.40732 4.27171 7.64467C4.03436 7.88202 3.71244 8.01536 3.37677 8.01536ZM9.28302 11.8122C9.03271 11.8122 8.78801 11.738 8.57988 11.5989C8.37175 11.4599 8.20953 11.2622 8.11374 11.0309C8.01795 10.7997 7.99288 10.5452 8.04172 10.2997C8.09055 10.0542 8.21109 9.82868 8.38809 9.65168C8.56509 9.47468 8.79061 9.35414 9.03611 9.3053C9.28162 9.25647 9.5361 9.28153 9.76736 9.37733C9.99862 9.47312 10.1963 9.63534 10.3354 9.84347C10.4744 10.0516 10.5486 10.2963 10.5486 10.5466C10.5486 10.8823 10.4153 11.2042 10.178 11.4415C9.94061 11.6789 9.61869 11.8122 9.28302 11.8122Z" fill="black"/>
</svg>
