<svg width="17" height="17" viewBox="0 0 17 17" fill="none" xmlns="http://www.w3.org/2000/svg">
<path d="M3.04369 15.7774C2.96082 16.2491 3.42619 16.6178 3.83632 16.4075L8.50069 14.0105L13.164 16.4075C13.5741 16.6178 14.0395 16.2491 13.9566 15.7785L13.0748 10.7528L16.8169 7.18708C17.1675 6.85345 16.9869 6.24358 16.5173 6.1777L11.3131 5.4382L8.99263 0.840762C8.94843 0.747569 8.87868 0.668832 8.79151 0.613698C8.70434 0.558564 8.60331 0.529297 8.50016 0.529297C8.39702 0.529297 8.29599 0.558564 8.20881 0.613698C8.12164 0.668832 8.0519 0.747569 8.00769 0.840762L5.68719 5.43926L0.483069 6.17876C0.0145068 6.24464 -0.167181 6.85451 0.182382 7.18814L3.92557 10.7539L3.04369 15.7795V15.7774ZM8.25526 12.8375L4.33888 14.8498L5.07626 10.6455C5.09401 10.5487 5.08748 10.4491 5.05725 10.3554C5.02703 10.2618 4.97405 10.1771 4.90307 10.109L1.81544 7.16583L6.12069 6.55383C6.20969 6.53994 6.29406 6.5049 6.36672 6.45165C6.43938 6.39841 6.4982 6.32851 6.53826 6.24783L8.49857 2.3612L10.461 6.24783C10.5011 6.32851 10.5599 6.39841 10.6325 6.45165C10.7052 6.5049 10.7896 6.53994 10.8786 6.55383L15.1838 7.16476L12.0962 10.1079C12.025 10.1761 11.972 10.261 11.9417 10.3548C11.9115 10.4487 11.9051 10.5486 11.923 10.6455L12.6604 14.8498L8.74401 12.8375C8.66835 12.7981 8.58435 12.7776 8.4991 12.7776C8.41385 12.7776 8.33091 12.7981 8.25526 12.8375Z" fill="#FCE40E"/>
</svg>
