<svg width="17" height="17" viewBox="0 0 17 17" fill="none" xmlns="http://www.w3.org/2000/svg">
<g clip-path="url(#clip0_434_1233)">
<path d="M5.68757 5.43894L8.00807 0.8415C8.05303 0.749322 8.12277 0.671478 8.20946 0.616684C8.29616 0.56189 8.39639 0.532308 8.49895 0.53125C8.69338 0.53125 8.88782 0.634312 8.99301 0.8415L11.3135 5.43894L16.5176 6.17844C16.6471 6.19939 16.7655 6.26407 16.8531 6.3617C16.9406 6.45933 16.9921 6.58402 16.9989 6.715C17.0062 6.80231 16.9937 6.89013 16.9625 6.97198C16.9312 7.05382 16.8819 7.12758 16.8183 7.18781L13.0751 10.7536L13.957 15.7792C14.0399 16.2499 13.5745 16.6186 13.1644 16.4082L8.49895 14.0112L3.83564 16.4082C3.78699 16.4338 3.73466 16.4517 3.68051 16.4613C3.31714 16.5251 2.97076 16.1914 3.04301 15.7792L3.92489 10.7536L0.182762 7.18781C0.124585 7.13277 0.0783427 7.06636 0.0469053 6.9927C0.0154679 6.91904 -0.000493634 6.83971 1.16312e-05 6.75962C0.00112436 6.64655 0.0322941 6.5358 0.0903241 6.43875C0.132007 6.36855 0.189016 6.30867 0.25709 6.26359C0.325164 6.21852 0.402544 6.18941 0.483449 6.17844L5.68757 5.43894ZM8.49895 12.7787C8.58471 12.7783 8.66929 12.7987 8.74545 12.8382L12.6618 14.8506L11.9244 10.6462C11.9066 10.5496 11.9129 10.4499 11.943 10.3563C11.973 10.2627 12.0258 10.1779 12.0966 10.1097L15.1853 7.16656L10.88 6.55456C10.791 6.54067 10.7066 6.50563 10.634 6.45239C10.5613 6.39914 10.5025 6.32925 10.4624 6.24856L8.50001 2.36194L8.49895 2.36512V12.7787Z" fill="#FCE40E"/>
</g>
<defs>
<clipPath id="clip0_434_1233">
<rect width="17" height="17" fill="white"/>
</clipPath>
</defs>
</svg>
