<svg width="34" height="43" viewBox="0 0 34 43" fill="none" xmlns="http://www.w3.org/2000/svg">
<path fill-rule="evenodd" clip-rule="evenodd" d="M9.86133 21.8223C9.86133 22.2201 10.0194 22.6016 10.3007 22.8829C10.582 23.1642 10.9635 23.3223 11.3613 23.3223H28.7403L22.2993 29.7603C22.0177 30.0419 21.8594 30.4239 21.8594 30.8223C21.8594 31.2206 22.0177 31.6026 22.2993 31.8843C22.581 32.1659 22.963 32.3242 23.3613 32.3242C23.7597 32.3242 24.1417 32.1659 24.4233 31.8843L33.4233 22.8843C33.563 22.7449 33.6738 22.5794 33.7495 22.3972C33.8251 22.2149 33.864 22.0196 33.864 21.8223C33.864 21.625 33.8251 21.4296 33.7495 21.2474C33.6738 21.0651 33.563 20.8996 33.4233 20.7603L24.4233 11.7603C24.1417 11.4786 23.7597 11.3204 23.3613 11.3204C22.963 11.3204 22.581 11.4786 22.2993 11.7603C22.0177 12.0419 21.8594 12.4239 21.8594 12.8223C21.8594 13.2206 22.0177 13.6026 22.2993 13.8843L28.7403 20.3223H11.3613C10.9635 20.3223 10.582 20.4803 10.3007 20.7616C10.0194 21.0429 9.86133 21.4244 9.86133 21.8223ZM2.36133 42.8223C1.9635 42.8223 1.58197 42.6642 1.30067 42.3829C1.01936 42.1016 0.861328 41.7201 0.861328 41.3223V2.32227C0.861328 1.92444 1.01936 1.54291 1.30067 1.26161C1.58197 0.980301 1.9635 0.822266 2.36133 0.822266C2.75915 0.822266 3.14068 0.980301 3.42199 1.26161C3.70329 1.54291 3.86133 1.92444 3.86133 2.32227V41.3223C3.86133 41.7201 3.70329 42.1016 3.42199 42.3829C3.14068 42.6642 2.75915 42.8223 2.36133 42.8223Z" fill="#333333"/>
</svg>
