<svg width="34" height="42" viewBox="0 0 34 42" fill="none" xmlns="http://www.w3.org/2000/svg">
<path fill-rule="evenodd" clip-rule="evenodd" d="M31.5398 42C31.142 42 30.7604 41.842 30.4791 41.5607C30.1978 41.2794 30.0398 40.8978 30.0398 40.5V1.5C30.0398 1.10218 30.1978 0.720644 30.4791 0.43934C30.7604 0.158035 31.142 0 31.5398 0C31.9376 0 32.3191 0.158035 32.6005 0.43934C32.8818 0.720644 33.0398 1.10218 33.0398 1.5V40.5C33.0398 40.8978 32.8818 41.2794 32.6005 41.5607C32.3191 41.842 31.9376 42 31.5398 42ZM24.0398 21C24.0398 21.3978 23.8818 21.7794 23.6005 22.0607C23.3191 22.342 22.9376 22.5 22.5398 22.5H5.16079L11.6018 28.938C11.7413 29.0775 11.8519 29.243 11.9274 29.4252C12.0028 29.6075 12.0417 29.8028 12.0417 30C12.0417 30.1972 12.0028 30.3925 11.9274 30.5748C11.8519 30.757 11.7413 30.9225 11.6018 31.062C11.4623 31.2015 11.2968 31.3121 11.1145 31.3876C10.9323 31.463 10.737 31.5019 10.5398 31.5019C10.3426 31.5019 10.1473 31.463 9.96504 31.3876C9.78282 31.3121 9.61725 31.2015 9.47779 31.062L0.477791 22.062C0.338101 21.9227 0.227273 21.7571 0.151653 21.5749C0.0760339 21.3927 0.0371094 21.1973 0.0371094 21C0.0371094 20.8027 0.0760339 20.6073 0.151653 20.4251C0.227273 20.2429 0.338101 20.0773 0.477791 19.938L9.47779 10.938C9.75945 10.6563 10.1415 10.4981 10.5398 10.4981C10.9381 10.4981 11.3201 10.6563 11.6018 10.938C11.8835 11.2197 12.0417 11.6017 12.0417 12C12.0417 12.3983 11.8835 12.7803 11.6018 13.062L5.16079 19.5H22.5398C22.9376 19.5 23.3191 19.658 23.6005 19.9393C23.8818 20.2206 24.0398 20.6022 24.0398 21Z" fill="#333333"/>
</svg>
