<svg width="36" height="36" viewBox="0 0 36 36" fill="none" xmlns="http://www.w3.org/2000/svg">
<path d="M23.1423 16.7143C24.8473 16.7143 26.4824 16.037 27.688 14.8314C28.8936 13.6258 29.5709 11.9907 29.5709 10.2857C29.5709 8.58073 28.8936 6.94559 27.688 5.74C26.4824 4.53441 24.8473 3.85712 23.1423 3.85712M29.5709 34.7143H34.7137V33.3205C34.6863 30.7172 33.7837 28.1988 32.1511 26.1707C30.5186 24.1426 28.2511 22.7229 25.7137 22.14M12.8566 16.7143C14.5615 16.7143 16.1967 16.037 17.4023 14.8314C18.6079 13.6258 19.2852 11.9907 19.2852 10.2857C19.2852 8.58073 18.6079 6.94559 17.4023 5.74C16.1967 4.53441 14.5615 3.85712 12.8566 3.85712C11.1516 3.85712 9.51649 4.53441 8.3109 5.74C7.10531 6.94559 6.42801 8.58073 6.42801 10.2857C6.42801 11.9907 7.10531 13.6258 8.3109 14.8314C9.51649 16.037 11.1516 16.7143 12.8566 16.7143ZM1.28516 34.7143H24.428V33.3205C24.4115 31.766 24.0827 30.2306 23.4609 28.8056C22.8392 27.3807 21.9373 26.0953 20.8089 25.0259C19.6805 23.9565 18.3485 23.1249 16.8923 22.5805C15.4361 22.0362 13.8852 21.7902 12.332 21.8571C9.3756 21.9974 6.5847 23.2627 4.53093 25.3939C2.47716 27.5252 1.31596 30.361 1.28516 33.3205V34.7143Z" stroke="black" stroke-width="2" stroke-linecap="round" stroke-linejoin="round"/>
</svg>
