<svg width="45" height="45" viewBox="0 0 45 45" fill="none" xmlns="http://www.w3.org/2000/svg">
<path d="M11.25 39.375C10.1925 39.375 9.30313 39.0144 8.58188 38.2931C7.86063 37.5719 7.5 36.6825 7.5 35.625V33.39C7.5 32.955 7.64375 32.5938 7.93125 32.3063C8.21875 32.0188 8.58 31.875 9.015 31.875H13.125V7.07439C13.125 6.90439 13.1888 6.79189 13.3163 6.73689C13.4438 6.68189 13.5738 6.69689 13.7063 6.78189L15.1013 7.71002C15.24 7.80127 15.3744 7.84689 15.5044 7.84689C15.6344 7.84689 15.7694 7.80127 15.9094 7.71002L17.5538 6.64127C17.6925 6.55002 17.8269 6.50439 17.9569 6.50439C18.0869 6.50439 18.2213 6.55002 18.36 6.64127L20.0044 7.71002C20.1444 7.80127 20.2794 7.84689 20.4094 7.84689C20.5381 7.84689 20.6725 7.80127 20.8125 7.71002L22.4569 6.64127C22.5956 6.55002 22.73 6.50439 22.86 6.50439C22.99 6.50439 23.125 6.55002 23.265 6.64127L24.9094 7.71002C25.0481 7.80127 25.1825 7.84689 25.3125 7.84689C25.4425 7.84689 25.5769 7.80127 25.7156 7.71002L27.36 6.64127C27.5 6.55002 27.635 6.50439 27.765 6.50439C27.895 6.50439 28.0294 6.55002 28.1681 6.64127L29.8125 7.71002C29.9525 7.80127 30.0869 7.84689 30.2156 7.84689C30.3444 7.84689 30.4794 7.80127 30.6206 7.71002L32.265 6.64127C32.4038 6.55002 32.5381 6.50439 32.6681 6.50439C32.7981 6.50439 32.9325 6.55002 33.0713 6.64127L34.7156 7.71002C34.8556 7.80127 34.9906 7.84689 35.1206 7.84689C35.2506 7.84689 35.385 7.80127 35.5238 7.71002L36.9188 6.78189C37.0513 6.69814 37.1813 6.68314 37.3088 6.73689C37.4363 6.79064 37.5 6.90314 37.5 7.07439V35.625C37.5 36.6825 37.1394 37.5719 36.4181 38.2931C35.6969 39.0144 34.8075 39.375 33.75 39.375H11.25ZM33.75 37.5C34.2813 37.5 34.7269 37.32 35.0869 36.96C35.4469 36.6 35.6263 36.155 35.625 35.625V9.37502H15V31.875H30.36C30.795 31.875 31.1563 32.0188 31.4438 32.3063C31.7313 32.5938 31.875 32.955 31.875 33.39V35.625C31.875 36.1563 32.055 36.6019 32.415 36.9619C32.775 37.3219 33.22 37.5013 33.75 37.5ZM18.5344 14.0625H26.6831C26.9494 14.0625 27.1725 14.1519 27.3525 14.3306C27.5325 14.5094 27.6213 14.7325 27.6187 15C27.6163 15.2675 27.5269 15.4906 27.3506 15.6694C27.1744 15.8481 26.9513 15.9375 26.6812 15.9375H18.5344C18.2669 15.9375 18.0438 15.8481 17.865 15.6694C17.6863 15.4906 17.5969 15.2675 17.5969 15C17.5969 14.7325 17.6863 14.5094 17.865 14.3306C18.0438 14.1519 18.2669 14.0625 18.5344 14.0625ZM18.5344 19.6875H26.6831C26.9494 19.6875 27.1725 19.7769 27.3525 19.9556C27.5325 20.1344 27.6219 20.3575 27.6206 20.625C27.6194 20.8925 27.53 21.1156 27.3525 21.2944C27.175 21.4731 26.9519 21.5625 26.6831 21.5625H18.5344C18.2669 21.5625 18.0438 21.4731 17.865 21.2944C17.6863 21.1156 17.5969 20.8925 17.5969 20.625C17.5969 20.3575 17.6863 20.1344 17.865 19.9556C18.0438 19.7769 18.2669 19.6875 18.5344 19.6875ZM31.6594 16.4438C31.2719 16.4438 30.9344 16.3 30.6469 16.0125C30.3594 15.725 30.2156 15.3875 30.2156 15C30.2156 14.6125 30.3594 14.275 30.6469 13.9875C30.9344 13.7 31.2719 13.5563 31.6594 13.5563C32.0469 13.5563 32.3844 13.7 32.6719 13.9875C32.9581 14.275 33.1012 14.6125 33.1012 15C33.1012 15.3875 32.9575 15.725 32.67 16.0125C32.3825 16.3 32.0469 16.4438 31.6594 16.4438ZM31.6575 22.0688C31.2713 22.0688 30.9344 21.925 30.6469 21.6375C30.3594 21.35 30.2156 21.0125 30.2156 20.625C30.2156 20.2375 30.3594 19.9 30.6469 19.6125C30.9344 19.325 31.2719 19.1813 31.6594 19.1813C32.0469 19.1813 32.3844 19.325 32.6719 19.6125C32.9594 19.9 33.1025 20.2375 33.1012 20.625C33.1 21.0125 32.9563 21.35 32.67 21.6375C32.3838 21.925 32.0463 22.0688 31.6575 22.0688ZM11.25 37.5H30V33.75H9.375V35.625C9.375 36.1563 9.555 36.6019 9.915 36.9619C10.275 37.3219 10.72 37.5013 11.25 37.5Z" fill="white"/>
</svg>
