<svg width="30" height="30" viewBox="0 0 30 30" fill="none" xmlns="http://www.w3.org/2000/svg">
<rect width="30" height="30" rx="3" fill="#1678F2" fill-opacity="0.14"/>
<path d="M19.8752 18.2278C19.8752 19.6094 19.3993 20.7852 18.4477 21.7552C17.4954 22.7251 16.3305 23.2101 14.9532 23.2101C13.577 23.2101 12.4101 22.7251 11.4523 21.7552C10.4945 20.7852 10.0156 19.6094 10.0156 18.2278V10.2647C10.0156 9.29958 10.3477 8.47955 11.0117 7.80455C11.6758 7.12955 12.4903 6.79175 13.4554 6.79114C14.4198 6.79114 15.2341 7.12864 15.8982 7.80364C16.561 8.47925 16.8924 9.29958 16.8924 10.2647V17.8073C16.8924 18.3425 16.7057 18.8037 16.3323 19.1911C15.959 19.5784 15.5035 19.7721 14.9659 19.7721C14.4284 19.7721 13.9662 19.5815 13.5794 19.2002C13.1927 18.8195 12.9993 18.3552 12.9993 17.8073V10.6852C12.9993 10.5562 13.0431 10.448 13.1307 10.3604C13.2182 10.2729 13.3265 10.2291 13.4554 10.2291C13.5849 10.2291 13.6932 10.2729 13.7801 10.3604C13.8677 10.448 13.9115 10.5562 13.9115 10.6852V17.8073C13.9115 18.0986 14.0112 18.3467 14.2107 18.5516C14.4095 18.7572 14.6546 18.86 14.9459 18.86C15.2378 18.86 15.4831 18.7572 15.682 18.5516C15.8814 18.3467 15.9812 18.0986 15.9812 17.8073V10.2464C15.9775 9.53796 15.734 8.93715 15.2505 8.44398C14.7665 7.95019 14.1681 7.7033 13.4554 7.7033C12.7482 7.7033 12.1504 7.95293 11.6621 8.45219C11.1732 8.95144 10.9287 9.5556 10.9287 10.2647V18.2278C10.9257 19.354 11.3158 20.3139 12.099 21.1075C12.8829 21.9011 13.8373 22.2979 14.9623 22.2979C16.0709 22.2979 17.0134 21.9011 17.79 21.1075C18.5659 20.3139 18.9572 19.354 18.9639 18.2278V10.6861C18.9639 10.5572 19.0077 10.4489 19.0953 10.3613C19.1829 10.2738 19.2914 10.23 19.4209 10.23C19.5505 10.23 19.6587 10.2738 19.7457 10.3613C19.8326 10.4489 19.8761 10.5572 19.8761 10.6861L19.8752 18.2278Z" fill="#1678F2"/>
</svg>
