<svg width="25" height="25" viewBox="0 0 25 25" fill="none" xmlns="http://www.w3.org/2000/svg">
<path d="M4.66354 13.4766V13.4813C4.63723 13.5805 4.59161 13.6736 4.5293 13.7552C4.46698 13.8368 4.3892 13.9053 4.30039 13.9568C4.21158 14.0083 4.11348 14.0418 4.01172 14.0554C3.90995 14.069 3.8065 14.0624 3.70729 14.0359C3.03385 13.8578 3.1526 13.0812 3.1526 13.0812L3.18073 12.9844C3.18073 12.9844 3.22135 12.8531 3.25417 12.7578C3.65514 11.6336 4.24541 10.5862 4.99948 9.66094C6.40104 7.95156 8.75885 6.25 12.501 6.25C16.2432 6.25 18.601 7.95156 20.0042 9.66094C20.7582 10.5862 21.3485 11.6336 21.7495 12.7578C21.7831 12.8544 21.8143 12.9519 21.8432 13.05L21.8479 13.0703V13.0766L21.8495 13.0797C21.899 13.2785 21.8685 13.4889 21.7644 13.6654C21.6603 13.842 21.491 13.9705 21.293 14.0234C21.095 14.0763 20.8842 14.0493 20.7059 13.9481C20.5277 13.847 20.3963 13.6799 20.3401 13.4828L20.3385 13.4766L20.326 13.4375C20.2375 13.1609 20.1331 12.8897 20.0135 12.625C19.6951 11.9168 19.2854 11.2534 18.7948 10.6516C17.6354 9.2375 15.6948 7.8125 12.501 7.8125C9.30729 7.8125 7.36823 9.2375 6.20729 10.6516C5.57057 11.4336 5.07129 12.318 4.73073 13.2672C4.71142 13.3236 4.69319 13.3804 4.67604 13.4375L4.66354 13.4766ZM12.501 10.9375C11.465 10.9375 10.4715 11.3491 9.73891 12.0816C9.00634 12.8142 8.59479 13.8077 8.59479 14.8438C8.59479 15.8798 9.00634 16.8733 9.73891 17.6059C10.4715 18.3384 11.465 18.75 12.501 18.75C13.537 18.75 14.5306 18.3384 15.2632 17.6059C15.9957 16.8733 16.4073 15.8798 16.4073 14.8438C16.4073 13.8077 15.9957 12.8142 15.2632 12.0816C14.5306 11.3491 13.537 10.9375 12.501 10.9375ZM10.1573 14.8438C10.1573 14.2221 10.4042 13.626 10.8438 13.1865C11.2833 12.7469 11.8794 12.5 12.501 12.5C13.1226 12.5 13.7188 12.7469 14.1583 13.1865C14.5979 13.626 14.8448 14.2221 14.8448 14.8438C14.8448 15.4654 14.5979 16.0615 14.1583 16.501C13.7188 16.9406 13.1226 17.1875 12.501 17.1875C11.8794 17.1875 11.2833 16.9406 10.8438 16.501C10.4042 16.0615 10.1573 15.4654 10.1573 14.8438Z" fill="#333333"/>
</svg>
