<svg width="56" height="56" viewBox="0 0 56 56" fill="none" xmlns="http://www.w3.org/2000/svg">
<path d="M28 4C25.6131 4 23.3239 4.94821 21.636 6.63604C19.9482 8.32387 19 10.6131 19 13V29C19 30.1819 19.2328 31.3522 19.6851 32.4442C20.1374 33.5361 20.8003 34.5282 21.636 35.364C22.4718 36.1997 23.4639 36.8626 24.5558 37.3149C25.6478 37.7672 26.8181 38 28 38C29.1819 38 30.3522 37.7672 31.4442 37.3149C32.5361 36.8626 33.5282 36.1997 34.364 35.364C35.1997 34.5282 35.8626 33.5361 36.3149 32.4442C36.7672 31.3522 37 30.1819 37 29V13C37 10.6131 36.0518 8.32387 34.364 6.63604C32.6761 4.94821 30.3869 4 28 4ZM22 13C22 12.2121 22.1552 11.4319 22.4567 10.7039C22.7583 9.97595 23.2002 9.31451 23.7574 8.75736C24.3145 8.20021 24.9759 7.75825 25.7039 7.45672C26.4319 7.15519 27.2121 7 28 7C28.7879 7 29.5681 7.15519 30.2961 7.45672C31.0241 7.75825 31.6855 8.20021 32.2426 8.75736C32.7998 9.31451 33.2418 9.97595 33.5433 10.7039C33.8448 11.4319 34 12.2121 34 13V29C34 29.7879 33.8448 30.5681 33.5433 31.2961C33.2418 32.0241 32.7998 32.6855 32.2426 33.2426C31.6855 33.7998 31.0241 34.2417 30.2961 34.5433C29.5681 34.8448 28.7879 35 28 35C27.2121 35 26.4319 34.8448 25.7039 34.5433C24.9759 34.2417 24.3145 33.7998 23.7574 33.2426C23.2002 32.6855 22.7583 32.0241 22.4567 31.2961C22.1552 30.5681 22 29.7879 22 29V13Z" fill="#E40D0D"/>
<path d="M15 27.5C15 27.1022 14.842 26.7206 14.5607 26.4393C14.2794 26.158 13.8978 26 13.5 26C13.1022 26 12.7206 26.158 12.4393 26.4393C12.158 26.7206 12 27.1022 12 27.5V29C11.9999 32.9839 13.486 36.8245 16.1677 39.7706C18.8494 42.7168 22.5337 44.5565 26.5 44.93V50.5C26.5 50.8978 26.658 51.2794 26.9393 51.5607C27.2206 51.842 27.6022 52 28 52C28.3978 52 28.7794 51.842 29.0607 51.5607C29.342 51.2794 29.5 50.8978 29.5 50.5V44.93C33.4663 44.5565 37.1506 42.7168 39.8323 39.7706C42.514 36.8245 44.0001 32.9839 44 29V27.5C44 27.1022 43.842 26.7206 43.5607 26.4393C43.2794 26.158 42.8978 26 42.5 26C42.1022 26 41.7206 26.158 41.4393 26.4393C41.158 26.7206 41 27.1022 41 27.5V29C41 32.4478 39.6304 35.7544 37.1924 38.1924C34.7544 40.6304 31.4478 42 28 42C24.5522 42 21.2456 40.6304 18.8076 38.1924C16.3696 35.7544 15 32.4478 15 29V27.5Z" fill="#E40D0D"/>
</svg>
