<svg width="79" height="80" viewBox="0 0 79 80" fill="none" xmlns="http://www.w3.org/2000/svg">
<path d="M39.5013 6.1001C36.1505 6.1001 32.937 7.43118 30.5676 9.80053C28.1983 12.1699 26.8672 15.3834 26.8672 18.7342V41.1947C26.8672 42.8538 27.194 44.4967 27.8289 46.0296C28.4638 47.5624 29.3944 48.9552 30.5676 50.1283C31.7408 51.3015 33.1336 52.2321 34.6664 52.8671C36.1992 53.502 37.8421 53.8288 39.5013 53.8288C41.1604 53.8288 42.8033 53.502 44.3361 52.8671C45.8689 52.2321 47.2617 51.3015 48.4349 50.1283C49.6081 48.9552 50.5387 47.5624 51.1736 46.0296C51.8085 44.4967 52.1353 42.8538 52.1353 41.1947V18.7342C52.1353 15.3834 50.8042 12.1699 48.4349 9.80053C46.0655 7.43118 42.852 6.1001 39.5013 6.1001ZM31.0785 18.7342C31.0785 17.6281 31.2964 16.5328 31.7197 15.5109C32.143 14.489 32.7634 13.5605 33.5455 12.7784C34.3276 11.9963 35.2561 11.3759 36.278 10.9526C37.2999 10.5293 38.3952 10.3115 39.5013 10.3115C40.6073 10.3115 41.7026 10.5293 42.7245 10.9526C43.7464 11.3759 44.6749 11.9963 45.457 12.7784C46.2391 13.5605 46.8595 14.489 47.2828 15.5109C47.7061 16.5328 47.924 17.6281 47.924 18.7342V41.1947C47.924 42.3008 47.7061 43.3961 47.2828 44.4179C46.8595 45.4398 46.2391 46.3683 45.457 47.1505C44.6749 47.9326 43.7464 48.553 42.7245 48.9763C41.7026 49.3996 40.6073 49.6174 39.5013 49.6174C38.3952 49.6174 37.2999 49.3996 36.278 48.9763C35.2561 48.553 34.3276 47.9326 33.5455 47.1505C32.7634 46.3683 32.143 45.4398 31.7197 44.4179C31.2964 43.3961 31.0785 42.3008 31.0785 41.1947V18.7342Z" fill="white"/>
<path d="M21.2504 39.0891C21.2504 38.5306 21.0286 37.995 20.6337 37.6001C20.2388 37.2052 19.7032 36.9834 19.1447 36.9834C18.5863 36.9834 18.0507 37.2052 17.6558 37.6001C17.2609 37.995 17.0391 38.5306 17.0391 39.0891V41.1948C17.0389 46.7872 19.1251 52.1786 22.8896 56.3144C26.6541 60.4501 31.8261 63.0327 37.3939 63.557V71.3761C37.3939 71.9346 37.6158 72.4702 38.0107 72.8651C38.4056 73.26 38.9412 73.4818 39.4996 73.4818C40.0581 73.4818 40.5937 73.26 40.9886 72.8651C41.3834 72.4702 41.6053 71.9346 41.6053 71.3761V63.557C47.1732 63.0327 52.3451 60.4501 56.1096 56.3144C59.8741 52.1786 61.9603 46.7872 61.9602 41.1948V39.0891C61.9602 38.5306 61.7383 37.995 61.3434 37.6001C60.9485 37.2052 60.413 36.9834 59.8545 36.9834C59.296 36.9834 58.7604 37.2052 58.3656 37.6001C57.9707 37.995 57.7488 38.5306 57.7488 39.0891V41.1948C57.7488 46.0347 55.8261 50.6765 52.4037 54.0989C48.9814 57.5213 44.3396 59.444 39.4996 59.444C34.6596 59.444 30.0179 57.5213 26.5955 54.0989C23.1731 50.6765 21.2504 46.0347 21.2504 41.1948V39.0891Z" fill="white"/>
</svg>
