<svg width="229" height="229" viewBox="0 0 229 229" fill="none" xmlns="http://www.w3.org/2000/svg">
<circle cx="114.5" cy="114.5" r="114.5" fill="#E40D0D" fill-opacity="0.92"/>
<circle cx="114.5" cy="114.5" r="114.5" fill="#FB8A8A" fill-opacity="0.52"/>
<g filter="url(#filter0_d_647_5502)">
<circle cx="114.498" cy="114.5" r="88.8657" fill="url(#paint0_angular_647_5502)" fill-opacity="0.27" shape-rendering="crispEdges"/>
</g>
<path d="M114.501 79.1001C111.15 79.1001 107.937 80.4312 105.568 82.8005C103.198 85.1699 101.867 88.3834 101.867 91.7342V114.195C101.867 115.854 102.194 117.497 102.829 119.03C103.464 120.562 104.394 121.955 105.568 123.128C106.741 124.302 108.134 125.232 109.666 125.867C111.199 126.502 112.842 126.829 114.501 126.829C116.16 126.829 117.803 126.502 119.336 125.867C120.869 125.232 122.262 124.302 123.435 123.128C124.608 121.955 125.539 120.562 126.174 119.03C126.809 117.497 127.135 115.854 127.135 114.195V91.7342C127.135 88.3834 125.804 85.1699 123.435 82.8005C121.066 80.4312 117.852 79.1001 114.501 79.1001ZM106.079 91.7342C106.079 90.6281 106.296 89.5328 106.72 88.5109C107.143 87.489 107.763 86.5605 108.545 85.7784C109.328 84.9963 110.256 84.3759 111.278 83.9526C112.3 83.5293 113.395 83.3115 114.501 83.3115C115.607 83.3115 116.703 83.5293 117.724 83.9526C118.746 84.3759 119.675 84.9963 120.457 85.7784C121.239 86.5605 121.86 87.489 122.283 88.5109C122.706 89.5328 122.924 90.6281 122.924 91.7342V114.195C122.924 115.301 122.706 116.396 122.283 117.418C121.86 118.44 121.239 119.368 120.457 120.15C119.675 120.933 118.746 121.553 117.724 121.976C116.703 122.4 115.607 122.617 114.501 122.617C113.395 122.617 112.3 122.4 111.278 121.976C110.256 121.553 109.328 120.933 108.545 120.15C107.763 119.368 107.143 118.44 106.72 117.418C106.296 116.396 106.079 115.301 106.079 114.195V91.7342Z" fill="white"/>
<path d="M96.2504 112.089C96.2504 111.531 96.0286 110.995 95.6337 110.6C95.2388 110.205 94.7032 109.983 94.1447 109.983C93.5863 109.983 93.0507 110.205 92.6558 110.6C92.2609 110.995 92.0391 111.531 92.0391 112.089V114.195C92.0389 119.787 94.1251 125.179 97.8896 129.314C101.654 133.45 106.826 136.033 112.394 136.557V144.376C112.394 144.935 112.616 145.47 113.011 145.865C113.406 146.26 113.941 146.482 114.5 146.482C115.058 146.482 115.594 146.26 115.989 145.865C116.383 145.47 116.605 144.935 116.605 144.376V136.557C122.173 136.033 127.345 133.45 131.11 129.314C134.874 125.179 136.96 119.787 136.96 114.195V112.089C136.96 111.531 136.738 110.995 136.343 110.6C135.949 110.205 135.413 109.983 134.854 109.983C134.296 109.983 133.76 110.205 133.366 110.6C132.971 110.995 132.749 111.531 132.749 112.089V114.195C132.749 119.035 130.826 123.676 127.404 127.099C123.981 130.521 119.34 132.444 114.5 132.444C109.66 132.444 105.018 130.521 101.595 127.099C98.1731 123.676 96.2504 119.035 96.2504 114.195V112.089Z" fill="white"/>
<defs>
<filter id="filter0_d_647_5502" x="10.6328" y="10.6343" width="207.73" height="207.731" filterUnits="userSpaceOnUse" color-interpolation-filters="sRGB">
<feFlood flood-opacity="0" result="BackgroundImageFix"/>
<feColorMatrix in="SourceAlpha" type="matrix" values="0 0 0 0 0 0 0 0 0 0 0 0 0 0 0 0 0 0 127 0" result="hardAlpha"/>
<feOffset/>
<feGaussianBlur stdDeviation="7.5"/>
<feComposite in2="hardAlpha" operator="out"/>
<feColorMatrix type="matrix" values="0 0 0 0 0 0 0 0 0 0 0 0 0 0 0 0 0 0 0.25 0"/>
<feBlend mode="normal" in2="BackgroundImageFix" result="effect1_dropShadow_647_5502"/>
<feBlend mode="normal" in="SourceGraphic" in2="effect1_dropShadow_647_5502" result="shape"/>
</filter>
<radialGradient id="paint0_angular_647_5502" cx="0" cy="0" r="1" gradientUnits="userSpaceOnUse" gradientTransform="translate(116.207 127.744) rotate(-28.4127) scale(59.2616)">
<stop offset="0.43" stop-color="#7E0707"/>
<stop offset="0.805" stop-color="#EF4E4E"/>
</radialGradient>
</defs>
</svg>
