<svg width="42" height="42" viewBox="0 0 42 42" fill="none" xmlns="http://www.w3.org/2000/svg">
<path d="M20.9987 19.8333C22.6139 19.8333 24.1929 19.3544 25.5359 18.457C26.8789 17.5596 27.9256 16.2842 28.5437 14.7919C29.1618 13.2997 29.3236 11.6576 29.0084 10.0734C28.6933 8.48925 27.9155 7.03409 26.7734 5.89196C25.6313 4.74984 24.1761 3.97204 22.5919 3.65692C21.0078 3.34181 19.3657 3.50354 17.8734 4.12165C16.3812 4.73977 15.1057 5.78651 14.2084 7.12951C13.311 8.47251 12.832 10.0515 12.832 11.6667C12.832 13.8326 13.6924 15.9098 15.224 17.4414C16.7555 18.9729 18.8328 19.8333 20.9987 19.8333ZM20.9987 5.83334C22.1524 5.83334 23.2802 6.17546 24.2395 6.81643C25.1988 7.45741 25.9465 8.36845 26.388 9.43435C26.8295 10.5003 26.945 11.6731 26.7199 12.8047C26.4949 13.9363 25.9393 14.9757 25.1235 15.7915C24.3077 16.6073 23.2683 17.1628 22.1367 17.3879C21.0052 17.613 19.8323 17.4975 18.7664 17.056C17.7005 16.6145 16.7894 15.8668 16.1485 14.9075C15.5075 13.9482 15.1654 12.8204 15.1654 11.6667C15.1654 10.1196 15.7799 8.63584 16.8739 7.54188C17.9679 6.44792 19.4516 5.83334 20.9987 5.83334Z" fill="black"/>
<path d="M35.547 28.4317C33.6761 26.4542 31.4214 24.8791 28.921 23.8026C26.4206 22.7261 23.7268 22.1709 21.0045 22.1709C18.2822 22.1709 15.5885 22.7261 13.0881 23.8026C10.5876 24.8791 8.33301 26.4542 6.46203 28.4317C6.0564 28.8649 5.83111 29.4365 5.83203 30.03V36.1667C5.83203 36.7855 6.07787 37.379 6.51545 37.8166C6.95304 38.2542 7.54653 38.5 8.16537 38.5H33.832C34.4509 38.5 35.0444 38.2542 35.4819 37.8166C35.9195 37.379 36.1654 36.7855 36.1654 36.1667V30.03C36.1695 29.4381 35.9484 28.8667 35.547 28.4317ZM33.832 36.1667H8.16537V30.0183C9.8188 28.2773 11.8092 26.8909 14.0155 25.9435C16.2217 24.9961 18.5976 24.5076 20.9987 24.5076C23.3998 24.5076 25.7757 24.9961 27.9819 25.9435C30.1882 26.8909 32.1786 28.2773 33.832 30.0183V36.1667Z" fill="black"/>
</svg>
