<svg width="23" height="20" viewBox="0 0 23 20" fill="none" xmlns="http://www.w3.org/2000/svg">
<path d="M16.4531 0C14.3559 0 12.5196 0.901875 11.375 2.42633C10.2304 0.901875 8.39414 0 6.29688 0C4.62742 0.00188169 3.02688 0.665905 1.84639 1.84639C0.665905 3.02688 0.00188169 4.62742 0 6.29688C0 13.4063 10.5412 19.1608 10.9901 19.3984C11.1084 19.4621 11.2406 19.4954 11.375 19.4954C11.5094 19.4954 11.6416 19.4621 11.7599 19.3984C12.2088 19.1608 22.75 13.4063 22.75 6.29688C22.7481 4.62742 22.0841 3.02688 20.9036 1.84639C19.7231 0.665905 18.1226 0.00188169 16.4531 0ZM11.375 17.7531C9.52047 16.6725 1.625 11.7498 1.625 6.29688C1.62661 5.05831 2.11934 3.87094 2.99514 2.99514C3.87094 2.11934 5.05831 1.62661 6.29688 1.625C8.27227 1.625 9.93078 2.67719 10.6234 4.36719C10.6847 4.51621 10.7888 4.64367 10.9226 4.73337C11.0564 4.82307 11.2139 4.87097 11.375 4.87097C11.5361 4.87097 11.6936 4.82307 11.8274 4.73337C11.9612 4.64367 12.0653 4.51621 12.1266 4.36719C12.8192 2.67414 14.4777 1.625 16.4531 1.625C17.6917 1.62661 18.8791 2.11934 19.7549 2.99514C20.6307 3.87094 21.1234 5.05831 21.125 6.29688C21.125 11.7416 13.2275 16.6715 11.375 17.7531Z" fill="white"/>
</svg>
